<?xml version="1.0" encoding="UTF-8" standalone="no"?>
<svg width="251px" height="439px" viewBox="0 0 251 439" version="1.1" xmlns="http://www.w3.org/2000/svg" xmlns:xlink="http://www.w3.org/1999/xlink">
    <!-- Generator: Sketch 42 (36781) - http://www.bohemiancoding.com/sketch -->
    <title>Group Copy</title>
    <desc>Created with Sketch.</desc>
    <defs>
        <filter x="-50%" y="-50%" width="200%" height="200%" filterUnits="objectBoundingBox" id="filter-1">
            <feGaussianBlur stdDeviation="0" in="SourceGraphic"></feGaussianBlur>
        </filter>
    </defs>
    <g id="Mkt" stroke="none" stroke-width="1" fill="none" fill-rule="evenodd">
        <g id="Desktop-HD" transform="translate(-950.000000, -128.000000)">
            <g id="Group-Copy" transform="translate(950.000000, 128.000000)">
                <ellipse id="Oval" fill="#FFA700" filter="url(#filter-1)" cx="114.467033" cy="428.646226" rx="66.1978022" ry="10.3537736"></ellipse>
                <g id="Page-1">
                    <path d="M186.892967,399.710303 C182.140373,397.975366 175.191753,393.363053 171.356901,387.896365 L171.324125,388.547785 L169.193652,396.698715 L166.535477,404.293155 L162.27453,410.709148 L156.869684,416.437713 L150.966635,421.642524 L143.391984,424.238382 L134.876646,425.279344 L125.269852,427.076477 L115.341847,427.502028 L105.541671,427.011008 L95.7316615,426.693482 L86.6951779,425.439744 L77.5505318,421.511585 L76.0428124,420.529546 C76.272248,420.56228 76.4984059,420.56228 76.7311191,420.56228 C83.7420144,420.56228 89.4484047,413.917145 89.4484047,405.769488 C89.4484047,398.273252 84.6630343,392.115863 78.5010506,391.133823 C78.5305495,391.101088 78.5993801,391.068354 78.6321566,391.038892 C87.3507081,390.282722 94.2304974,381.018814 94.2304974,369.692622 C94.2304974,357.842676 86.7246768,348.284156 77.4817012,348.284156 C76.9605547,348.284156 76.468907,348.31689 75.9739817,348.38236 C77.4817012,347.072973 78.4322199,345.210371 78.4322199,343.11208 C78.4322199,340.755184 77.2555433,338.66344 75.3840046,337.35078 C75.3840046,337.252576 75.3545057,337.187107 75.3217292,337.088903 L76.0723113,336.630617 L84.7253097,333.291682 L93.7388497,331.360338 L103.670132,330.967522 L113.473586,331.458541 L123.535974,333.753241 L132.811726,336.827025 L141.953095,340.787919 L150.278328,345.92726 L157.882478,351.393948 L163.982187,358.36643 L167.617101,365.338912 L170.599764,372.638741 L170.63254,372.998822 C172.176314,369.299806 175.880059,362.752874 183.448155,360.134102 C194.231627,356.369616 184.365898,366.09181 186.0375,378.632457 C187.745156,391.199292 194.988764,402.656422 186.892967,399.710303 Z M250.676053,109.452419 L250.676053,129.191418 L249.78781,138.294926 L247.98838,146.835398 L245.330205,154.855389 L241.793619,162.318891 L237.365513,169.261912 L232.055719,175.674632 L226.745924,181.537409 L220.977258,187.426374 L215.241369,192.238369 L195.739346,209.32586 L189.970681,214.10512 L184.234792,220.521113 L174.503446,233.353099 L170.504712,240.816601 L166.964849,249.360347 L164.539387,261.079354 C162.667849,254.336015 157.131896,249.461824 150.609371,249.461824 C143.529645,249.461824 137.629873,255.190389 136.25326,262.781557 C131.792377,252.993894 122.093808,246.872513 111.897036,248.345572 C99.1797503,250.145979 90.5300295,263.108903 92.5621731,277.286283 C92.7555545,278.657866 93.050543,280.032721 93.4438612,281.309373 C93.4438612,281.509054 93.4438612,281.702189 93.4799153,281.898597 C93.3488093,281.898597 93.2504797,281.865862 93.1193737,281.865862 C89.3828517,278.788804 84.5942037,277.708561 80.4020881,279.443497 C74.2401044,281.996801 71.5524307,289.692719 74.0106688,296.989274 C73.9418382,297.283886 73.8795628,297.578498 73.8467863,297.876383 C73.4206917,297.058017 73.0273736,296.203642 72.6635543,295.254337 C72.6635543,295.221603 72.6635543,295.188868 72.6340555,295.156133 C70.3364222,289.165691 68.6353213,280.425537 68.6353213,267.659021 C68.6353213,260.326457 70.9624535,250.473325 72.732385,243.369904 C75.2233997,233.418568 79.3499622,218.589768 83.2536444,215.185364 L85.0235759,211.453613 L88.1340667,204.513865 L89.4484047,201.309142 L94.3321046,193.842367 L100.10077,186.34613 L105.410565,180.486627 L107.606591,177.802385 L112.916385,173.546879 L115.568005,171.942881 L120.910576,168.178395 L123.568751,166.574397 L130.186328,162.318891 L137.29883,156.986416 L140.3831,154.2989 L146.148488,148.963151 L148.806663,145.755155 L153.231492,138.815407 L156.34526,129.747907 L157.226948,121.727916 L155.883111,114.264414 L152.77262,106.768177 L148.806663,100.352184 L143.922963,95.572924 L139.068762,92.3649275 L132.844503,89.6806856 L125.764777,88.0766873 L118.681773,88.0766873 L112.028142,89.6806856 L105.836659,92.8886821 L100.10077,96.0966785 L94.7581992,100.352184 L90.7922416,105.164179 L87.2523786,111.056417 L85.0235759,119.043674 L84.5319283,121.007753 L83.2175903,129.191418 L81.0903948,137.669694 L77.8127439,145.591481 L74.2040502,152.989514 L69.061416,159.241834 L63.6205154,163.366401 L57.7830191,166.967213 L51.2277173,168.931292 L47.756685,169.392851 C52.7354367,174.103368 56.1769702,182.123359 57.0324371,187.265974 C58.441827,195.773712 48.507267,186.578546 36.4487893,182.614379 C24.3870339,178.653486 13.0463617,186.578546 18.7134202,176.656672 C21.5682541,171.648269 26.0586359,168.996762 29.7918803,167.589171 L24.2559279,165.003133 L18.6150906,161.107709 L13.4036257,156.68853 L8.98207458,150.698088 L5.34060441,143.660136 L2.52510227,135.574676 L0.82072379,126.965461 L0.525735208,123.986607 L0.161915955,120.745876 L0.00131106037,118.523193 L0.00131106037,115.933881 L0.099640588,112.758619 L0.293021992,108.994134 L0.424128029,106.768177 L0.424128029,103.560181 L1.77124256,94.4926803 L3.54117405,84.3449363 L5.76669903,76.3249452 L6.65494243,72.5931942 L9.30656202,66.1772012 L10.6209,62.4454502 L14.160763,54.425459 L19.4705575,45.8817133 L25.6948166,38.4182113 L31.0046111,33.0824621 L33.662786,30.9579828 L38.5137094,27.1902236 L41.2013831,25.0624709 L46.5111776,21.8544744 L49.5888918,20.2504762 L62.8994322,12.7869742 L65.9771464,11.7067305 L73.0601501,8.49873399 L80.1693749,5.8472267 L82.8275498,5.32347217 L89.0223101,3.71947394 L91.6739297,3.16298475 L98.3308387,2.1154757 L108.950428,1.03523199 L115.568005,0.511477461 L125.764777,0.511477461 L141.264788,2.63923022 L164.732769,6.37098122 L172.271366,7.97497946 L179.813241,10.1027322 L187.319061,13.3107287 L194.431564,17.0457532 L201.51129,21.3307199 L214.785776,30.9579828 L220.977258,36.2904585 L227.172019,42.1499623 L232.943962,48.5659553 L237.365513,56.0294573 L240.908654,64.573203 L244.022422,73.1169487 L248.443973,91.2846838 L249.78781,99.831703 L250.676053,109.452419 Z" id="Combined-Shape" fill="#E44C4B"></path>
                    <path d="M75.9880553,348.381038 C77.4904941,347.079714 78.4328755,345.218917 78.4328755,343.111752 C78.4328755,340.754857 77.2561988,338.663112 75.3846601,337.350453 C76.0106914,339.150859 76.3351789,341.082204 76.3351789,343.079018 C76.3351789,345.043097 76.0434679,346.908973 75.4534908,348.64391 C75.4862673,348.676644 75.5485427,348.676644 75.5813192,348.709379 C75.6852525,348.631235 75.7869566,348.550606 75.8863263,348.46758 C75.784985,348.559365 75.6836437,348.636655 75.5823025,348.710034 C82.3342634,351.721622 87.5785048,357.67933 89.3156598,365.306505 C91.6100155,375.421514 87.0213042,385.536524 78.6305178,391.03922 C87.3490693,390.283049 94.2321362,381.019141 94.2321362,369.692949 C94.2321362,357.843003 86.7263156,348.284483 77.48334,348.284483 C76.9633371,348.284483 76.4755604,348.316668 75.9880553,348.381038 Z M136.258739,262.747081 C137.647264,255.170274 143.539684,249.459533 150.608388,249.459533 C157.130913,249.459533 162.670143,254.333723 164.538404,261.080336 L164.505627,261.24401 C159.78581,256.006464 152.345543,253.780508 145.491974,256.265068 C141.660618,257.675852 138.612531,260.294407 136.64593,263.629798 C136.548248,263.762287 136.479418,263.929234 136.384366,264.092907 C130.710752,257.215355 121.766043,253.745482 113.014715,255.414949 C111.76593,255.614631 110.490924,255.971438 109.245416,256.432997 C103.640633,258.462546 99.2485809,262.423439 96.5281307,267.366373 C95.6759414,268.901628 94.9876347,270.538361 94.4632106,272.243837 C93.5749672,275.088479 93.2177032,278.165536 93.4438612,281.308064 C93.050543,280.034685 92.7555545,278.65983 92.5621731,277.284974 C90.5300295,263.110867 99.1797503,250.147943 111.897036,248.344263 C122.081484,246.882118 131.77147,252.981744 136.258739,262.747081 Z M93.1183904,281.865535 C90.7257052,281.734596 88.2674671,282.065216 85.9075584,282.945778 C79.5489156,285.269939 75.2551929,290.671158 74.0096856,296.988947 C71.5514474,289.692391 74.2391211,281.996473 80.4011048,279.44317 C84.5932204,277.708233 89.3818684,278.79175 93.1183904,281.865535 Z M89.4470936,405.768179 C89.4470936,413.915835 83.743981,420.564244 76.729808,420.564244 C76.5003725,420.564244 76.2709369,420.564244 76.0415014,420.53151 L75.8776188,420.430032 C82.7934623,416.734289 86.6610903,408.972902 84.8911588,401.214788 C83.9406401,397.06076 81.5479549,393.623621 78.335857,391.233991 C78.40141,391.201256 78.4341865,391.168522 78.4997395,391.132513 C84.6617233,392.114553 89.4470936,398.271942 89.4470936,405.768179 Z" id="Combined-Shape" fill="#C11F1E"></path>
                    <path d="M89.9590627,201.307506 L100.100115,186.347767 L107.605935,177.800748 L115.862338,171.604077 L121.204909,167.836318 L123.863084,166.23232 L130.480661,161.976814 L137.593164,156.641065 L140.677433,153.956823 L146.442821,148.621074 L149.097718,145.416351 L153.525825,138.476603 L156.639593,129.40583 L157.521281,121.385838 L156.177444,113.92561 L153.066954,106.429373 L149.097718,100.01338 L144.217296,95.2341203 L139.363095,92.0228504 L133.138836,89.3386084 L126.05911,87.7378836 L118.979384,87.7378836 L112.322475,89.3386084 L106.130992,92.5466049 L100.395103,95.7546014 L95.0525322,100.01338 L91.3028996,105.165815 L87.251723,111.058054 C86.2585948,110.485197 81.9320956,113.084329 82.0369804,110.805997 C82.1123664,109.185631 87.3074431,107.378678 88.5922823,104.534037 C89.9492297,101.525722 78.585614,93.3420571 77.7039259,93.0769063 C71.0732381,87.1028313 102.168312,93.0048901 101.624222,85.6395921 C101.076855,78.274294 90.5392069,57.8871491 100.37216,63.3407431 C110.205112,68.7976106 110.36244,80.7293934 113.368046,80.7293934 C116.373651,80.7293934 117.85515,73.9795069 126.593367,72.342774 C135.334862,70.7060411 133.853364,83.7311615 133.853364,83.7311615 C133.853364,83.7311615 137.245733,84.0748754 141.342796,82.9815378 C145.43986,81.8914737 155.272813,63.3407431 159.369876,72.6177451 C163.46694,81.8914737 142.047491,85.6395921 155.705463,89.4597266 C169.360156,93.2798612 174.824,72.5457289 174.551955,85.0961967 C174.276633,97.6433911 165.105765,100.713902 162.103437,102.078937 C161.392187,102.396463 161.854336,109.424594 167.019913,110.534299 C173.712877,111.971351 185.712357,107.804229 186.410496,111.080968 C187.016862,113.932157 171.854449,113.162892 165.925178,116.262865 C161.66751,118.482274 165.90879,125.012839 166.744591,125.536593 C171.116977,128.266664 180.635275,113.192354 181.379302,132.014782 C182.120051,150.83721 177.010193,130.378049 170.726937,137.471649 C169.153664,139.242594 180.189515,149.884632 178.216369,151.724319 C176.082618,153.711313 164.4994,145.858269 161.556069,146.270725 C156.315106,146.997435 161.202083,155.059981 172.637807,157.112444 C177.518229,157.986459 174.243856,163.322209 165.381088,163.728118 C161.225027,163.914706 158.278418,144.90569 148.717511,159.227103 C146.285494,162.87047 156.102058,170.478005 152.971902,170.478005 C143.414272,170.478005 136.583647,169.387941 140.136621,176.753239 C147.190125,191.388904 135.606907,182.822244 134.243404,182.003878 C132.876624,181.185512 132.9094,169.777483 129.484255,170.206307 C115.567349,171.941244 125.157756,182.576735 120.175727,185.552315 C116.304821,187.860108 111.516173,181.771462 109.726575,184.18728 C106.917629,187.981227 115.639458,191.055011 112.59452,193.392265 C108.979271,196.168164 106.635751,189.437919 103.377766,190.69493 C96.6159717,193.303882 90.1557217,201.811619 89.9590627,201.307506 Z M36.5467911,182.54891 C24.481758,178.588016 13.1410858,186.509804 18.8146996,176.591202 C21.6662559,171.5828 26.1566376,168.931292 29.8931597,167.523702 C31.007561,167.981987 32.2202918,168.374803 33.4657992,168.63668 C35.3012837,169.029496 37.1367682,169.1277 38.8378691,169.029496 C39.1000811,169.094966 39.3983474,169.160435 39.6933359,169.225904 C42.5088381,169.815128 45.2620649,169.782393 47.720303,169.225904 C47.7563572,169.225904 47.8186326,169.291374 47.8514091,169.324108 C52.8367161,174.037899 56.2782496,182.05789 57.1271612,187.197231 C58.5398287,195.708243 48.6085464,186.509804 36.5467911,182.54891 Z M170.600747,372.74251 C170.600747,372.74251 175.877765,362.85337 183.449139,360.237871 C194.23261,356.470112 184.366881,366.195578 186.038483,378.732952 C187.742861,391.303061 194.98647,402.760191 186.89395,399.814072 C182.141356,398.075862 175.189458,393.463548 171.354607,387.996861 L170.600747,372.74251 Z M171.42016,388.54713 L169.292964,396.69806 L166.63479,404.295774 L162.373843,410.711767 L156.965719,416.440332 L151.065948,421.641869 L143.491296,424.237728 L134.972682,425.27869 L125.369164,427.079096 L115.437882,427.501373 L105.640984,427.010353 L95.8276967,426.692827 L86.7944907,425.442363 C86.7944907,425.442363 88.6004764,421.952849 95.0443381,419.6025 C97.9778357,418.53535 106.581669,422.885786 108.118888,418.793954 C113.035364,405.700091 122.868317,400.789892 123.415684,405.700091 C123.963052,410.61029 115.919697,418.247285 125.677264,416.067157 C135.43483,413.883755 129.803826,408.718226 129.803826,405.847397 C129.803826,402.976567 138.165114,408.973557 137.073656,405.153422 C135.97892,401.336561 143.24875,402.406984 142.91443,401.870136 C138.817366,395.323204 144.720415,384.51422 146.906609,389.653562 C149.089524,394.789629 146.906609,408.004611 150.72835,407.39902 C154.553368,406.790155 147.450699,387.987368 154.006001,387.296666 C160.561302,386.605965 161.656038,399.699828 161.656038,396.426362 C161.656038,393.152897 166.43813,379.034439 171.42016,388.54713 Z M24.3037816,157.17955 C24.3037816,157.17955 19.3283075,157.588733 17.3092745,152.269351 C15.2902415,146.94997 12.422297,145.72242 12.422297,145.72242 L7.50582061,135.836553 C7.50582061,135.836553 9.14464607,123.626526 7.50582061,120.35306 C5.86699515,117.079594 8.7349397,106.850014 7.50582061,104.804098 C6.84701277,103.707486 9.13153546,93.2029348 11.3931146,83.6935166 C13.3498722,75.4640237 15.2902415,67.9776074 15.2902415,67.9776074 C15.2902415,67.9776074 31.5899996,43.2269326 31.6784961,50.3827288 C31.6916068,51.3811358 19.4790794,70.1315479 19.7970116,73.2969893 C20.1149437,76.4624307 26.0311036,74.6816653 24.7495421,78.6163712 C22.6256243,85.1338416 15.2738533,92.2110746 15.6442278,92.1194176 C22.2552498,90.4826847 15.6442278,97.8479827 15.6442278,97.8479827 C15.6442278,97.8479827 13.182712,109.305113 17.3092745,107.259197 C21.435837,105.213281 22.2552498,102.758181 22.2552498,107.259197 C22.2552498,111.760212 27.9911389,109.305113 22.2552498,111.760212 C16.5193606,114.215312 8.26623562,118.307144 17.3092745,119.943877 C26.3523134,121.58061 38.6435044,115.996077 32.9076152,124.104452 C27.1717261,132.219374 27.9911389,132.628557 23.8940752,132.628557 C19.7970116,132.628557 30.4493771,130.991824 29.220258,141.221404 C27.9911389,151.450985 49.2958698,159.225466 40.2823298,159.225466 C31.2687898,159.225466 24.3037816,157.17955 24.3037816,157.17955 Z" id="Combined-Shape" fill="#D23F3F"></path>
                    <path d="M80.1775691,290.880332 C80.1775691,290.880332 76.5524871,299.908551 74.2581315,300.013302 C67.7028296,300.321008 68.0633713,289.256693 73.1043984,282.935631 C78.4338588,276.251214 82.553866,274.751966 84.9072193,274.205297 C87.2605727,273.658629 89.7188109,279.662165 89.7188109,271.203529 C89.7188109,262.748167 94.8581675,247.91282 103.376782,248.128869 C111.898675,248.344918 114.301193,241.47064 121.95123,244.744105 C129.59799,248.017571 132.570819,245.873451 134.311252,252.109403 C136.048407,258.348629 135.881246,249.533186 139.97831,249.46117 C144.075374,249.382606 150.355353,241.06473 153.088914,243.86027 C155.819197,246.652536 165.675093,245.595206 167.56302,252.92777 C167.582686,253.00306 167.602352,253.075076 167.61874,253.147092 C168.841304,258.325715 164.537748,267.111697 158.372487,259.196457 C156.464894,256.747904 152.295722,256.23397 148.018388,258.95422 C134.458746,267.569982 146.805657,284.641106 136.648217,284.641106 C127.247914,284.641106 137.910112,267.137885 126.592384,260.564766 C115.038664,253.857434 96.5494354,262.649963 96.8214804,271.651994 C97.0935255,280.654025 101.09226,285.115759 92.2655456,284.844061 C83.4388317,284.572364 80.1775691,290.880332 80.1775691,290.880332 Z M78.4328755,335.720921 C78.4328755,335.720921 80.6387345,340.248124 81.0484409,343.03057 C81.4581473,345.813016 80.6387345,342.195837 88.4231555,348.710034 C96.2075764,355.22423 98.0496162,366.681361 96.4107908,372.616154 C94.7719653,378.547674 95.9551973,385.919519 89.4457826,389.389393 C82.9396455,392.86254 90.2651953,393.369927 91.4943144,400.280214 C92.7234335,407.1905 91.7008064,410.873149 89.4457826,414.555798 C87.1940364,418.238447 77.8592866,421.685406 81.799023,423.286131 C83.3362412,423.90809 84.8734595,424.726456 86.6925558,425.440072 C87.0432644,425.577557 87.1743705,425.512088 87.7250158,425.567737 C88.8426948,425.685582 90.5044638,425.904904 91.1370504,426.045663 C92.5038309,426.343548 101.186328,426.867303 101.186328,426.867303 C101.186328,426.867303 97.670445,429.362767 78.4536616,426.268094 C70.7976154,425.035164 72.309054,422.038802 73.2738775,420.831015 C75.93717,417.497046 77.4859874,419.707334 81.3565401,414.863504 C85.2270928,410.019674 84.8931254,401.216425 82.27756,400.643568 C79.6619946,400.070712 80.6256239,392.839626 78.4328755,393.687453 C73.6737263,395.527141 81.2287117,412.712837 76.9087678,412.919065 C68.2787129,413.328248 75.8795854,393.890408 75.5813192,391.13415 C75.2437211,387.975256 82.6512122,386.050458 84.9095137,381.209002 C87.1645375,376.364273 90.8813937,364.43249 85.7584253,361.15575 C80.6387345,357.882285 80.6846216,350.215828 76.9087678,351.132398 C71.0089961,352.562903 76.3351789,343.357917 74.4931391,340.696589 C72.6478216,338.038535 67.7739547,334.627584 73.1034151,335.174252 C73.1034151,335.174252 76.8464924,332.175758 78.4328755,335.720921 Z" id="Combined-Shape" fill="#FFFFFF" opacity="0.3"></path>
                </g>
            </g>
        </g>
    </g>
</svg>