<?xml version="1.0" encoding="UTF-8" standalone="no"?>
<svg width="120px" height="195px" viewBox="0 0 120 195" version="1.1" xmlns="http://www.w3.org/2000/svg" xmlns:xlink="http://www.w3.org/1999/xlink">
    <!-- Generator: Sketch 42 (36781) - http://www.bohemiancoding.com/sketch -->
    <title>Combined Shape</title>
    <desc>Created with Sketch.</desc>
    <defs></defs>
    <g id="Mkt" stroke="none" stroke-width="1" fill="none" fill-rule="evenodd" opacity="0.522737873">
        <g id="Desktop-HD" transform="translate(-660.000000, -1340.000000)" fill="#999999">
            <path d="M727.332692,1482.69507 C728.733101,1483.07958 729.922981,1483.79366 730.860226,1484.92835 C732.085973,1486.40987 732.840759,1488.11739 733.260258,1489.97715 C734.096137,1493.6841 733.838824,1497.29689 732.18578,1500.75273 C731.600976,1501.97531 730.808763,1503.05035 729.726487,1503.88371 C727.602481,1505.51747 725.052739,1505.39663 723.075324,1503.57611 C721.324033,1501.96432 720.375872,1499.90054 719.886197,1497.62176 C719.031604,1493.65271 719.352856,1489.81079 721.397329,1486.2341 C722.376679,1484.5203 723.727185,1483.20042 725.745146,1482.76413 C725.771657,1482.75942 725.790371,1482.71861 725.812204,1482.69507 L727.332692,1482.69507 Z M710.805839,1482.69507 C711.530995,1483.03093 712.31853,1483.27575 712.97195,1483.7199 C714.629673,1484.85301 715.609023,1486.52915 716.232814,1488.39204 C717.636342,1492.57139 717.514702,1496.70679 715.638654,1500.73233 C714.999269,1502.104 714.086975,1503.28263 712.820681,1504.1411 C710.799601,1505.51119 708.388652,1505.28991 706.498568,1503.5557 C704.803418,1501.99885 703.881768,1499.99785 703.37026,1497.79282 C702.510989,1494.07017 702.758946,1490.43542 704.435382,1486.97172 C705.289974,1485.20613 706.489211,1483.73716 708.387093,1482.99954 C708.681833,1482.88654 708.985931,1482.79551 709.28535,1482.69507 L710.805839,1482.69507 Z M743.657749,1505.85772 C743.412911,1506.85743 743.250726,1507.88854 742.907641,1508.85373 C741.923612,1511.61275 740.353221,1513.95118 737.755134,1515.428 C736.240884,1516.28803 734.639302,1516.58151 733.0424,1515.63359 C731.758951,1514.87399 731.141399,1513.62631 730.896561,1512.20913 C730.283688,1508.63872 731.389356,1505.5046 733.440066,1502.64984 C734.369513,1501.3535 735.528203,1500.29101 736.986313,1499.60204 C740.010136,1498.17544 742.737659,1499.5424 743.44566,1502.83189 C743.515837,1503.1599 743.587573,1503.48791 743.657749,1503.81748 L743.657749,1505.85772 Z M719.248995,1509.59732 C722.425647,1509.63184 725.193716,1510.56878 727.266258,1513.12849 C727.894727,1513.90692 728.571539,1514.64612 729.179735,1515.43867 C731.760667,1518.80349 734.15914,1522.29386 736.15215,1526.04947 C736.930328,1527.5153 737.307721,1529.06117 736.927209,1530.71533 C736.442212,1532.83718 735.05116,1534.09898 733.012926,1534.61061 C730.304117,1535.29174 727.668603,1535.03906 725.2405,1533.58893 C724.166021,1532.94547 723.072829,1532.39146 721.834605,1532.24708 C719.238079,1531.94575 716.643112,1531.83118 714.188497,1533.0051 C713.185755,1533.48377 712.240712,1534.11311 711.202102,1534.47564 C709.062501,1535.21798 706.865201,1535.15677 704.745873,1534.38933 C701.600411,1533.24993 700.842506,1530.07972 701.66435,1527.64556 C702.046421,1526.51715 702.596916,1525.42484 703.201993,1524.39531 C705.093636,1521.17801 707.085087,1518.02035 709.436776,1515.11694 C710.330355,1514.01364 711.284754,1512.94487 712.315567,1511.97027 C713.737809,1510.62842 715.529646,1510.01635 717.435325,1509.74641 C718.035723,1509.66166 718.643919,1509.6444 719.248995,1509.59732 Z M692.964816,1504.86303 C692.958578,1503.76601 693.119204,1502.70194 693.549619,1501.68496 C694.480626,1499.49563 696.52042,1498.53672 698.772303,1499.26336 C700.610924,1499.8566 701.997298,1501.0776 703.135715,1502.59679 C704.913517,1504.96661 705.920938,1507.6299 705.888189,1510.6212 C705.878832,1511.45456 705.732242,1512.32087 705.46869,1513.11343 C704.551719,1515.87088 702.069034,1516.91611 699.430401,1515.71865 C697.64948,1514.91197 696.334842,1513.57326 695.254126,1511.97403 C693.828765,1509.86474 692.964816,1507.17477 692.964816,1504.86303 Z M779.253088,1392.23005 L779.253088,1401.69361 L778.83203,1406.05658 L777.989913,1410.15274 L776.726738,1413.98211 L775.042505,1417.57606 L772.937213,1420.90322 L770.410862,1423.97927 L767.884512,1426.78852 L765.139835,1429.61346 L762.395159,1431.9048 L753.131874,1440.11283 L750.387198,1442.40417 L747.642521,1445.48022 L743.010879,1451.63232 L741.123913,1455.21058 L739.43968,1459.30674 L738.254478,1465.01941 C736.040023,1462.47696 732.484419,1461.42545 729.225116,1462.6182 C727.306961,1463.32444 725.809864,1464.67414 724.889774,1466.3691 C721.802012,1462.60251 716.671338,1460.97032 711.977317,1462.69668 C709.310614,1463.66971 707.220917,1465.5687 705.910957,1467.92282 C704.77254,1469.99444 704.242319,1472.42703 704.460645,1474.90671 C703.275444,1474.81254 702.059053,1474.96948 700.873852,1475.40892 C697.708117,1476.55459 695.602825,1479.37953 695.119387,1482.58113 C694.93225,1482.18878 694.745113,1481.76504 694.573571,1481.29421 C693.466343,1478.43788 692.655416,1474.23186 692.655416,1468.07976 C692.655416,1464.56428 693.747049,1459.84034 694.60476,1456.43472 C695.789962,1451.66371 697.739306,1444.55427 699.610677,1442.92208 L700.452793,1441.13295 L701.9187,1437.80579 L702.558085,1436.26777 L704.881704,1432.67381 L707.610786,1429.09555 L710.137136,1426.2863 L711.197579,1424.99939 L713.72393,1422.94345 L714.987105,1422.17444 L717.513455,1420.38531 L718.77663,1419.6163 L721.942365,1417.57606 L725.310832,1415.01792 L726.792334,1413.731 L729.521416,1411.17286 L730.800186,1409.63484 L732.905478,1406.30768 L734.371385,1401.96041 L734.792443,1398.11535 L734.168653,1394.53709 L732.687151,1390.94313 L730.800186,1387.86708 L728.476567,1385.57574 L726.152949,1384.03772 L723.20554,1382.7508 L719.837073,1381.98179 L716.468606,1381.98179 L713.302871,1382.7508 L710.355463,1384.28882 L707.610786,1385.82685 L705.084435,1387.86708 L703.181875,1390.17412 L701.497642,1392.99906 L700.452793,1396.82843 L699.813408,1399.38657 L699.189618,1400.67349 L698.347502,1401.4425 L697.084326,1401.69361 L694.760708,1402.21151 L693.279206,1402.46262 L689.910739,1402.72942 L676.421277,1402.72942 L666.518607,1401.96041 L663.368467,1401.1914 L661.465907,1400.67349 L660.842117,1400.15558 L660.202732,1399.13547 L660,1396.57732 L660,1394.53709 L660.202732,1390.94313 L660.202732,1389.40511 L660.842117,1385.05784 L661.684233,1380.19266 L662.729082,1376.3476 L663.15014,1374.55847 L664.413316,1371.48242 L665.0527,1369.69329 L666.736934,1365.84823 L669.263284,1361.75206 L672.210693,1358.1738 L674.737043,1355.61566 L676.000218,1354.57984 L678.323837,1352.79071 L679.587012,1351.77059 L682.113362,1350.23257 L683.594864,1349.46356 L689.910739,1345.8853 L691.392241,1345.36739 L694.760708,1343.82937 L698.129175,1342.55814 L699.39235,1342.29134 L702.339759,1341.52233 L703.618529,1341.27122 L706.768669,1340.75332 L711.821369,1340.25111 L714.987105,1340 L719.837073,1340 L727.213392,1341.02012 L738.379237,1342.80925 L741.96603,1343.57826 L745.537229,1344.59838 L749.124022,1346.1364 L752.492489,1347.92553 L755.860956,1349.98146 L762.192427,1354.57984 L765.139835,1357.15368 L768.087244,1359.96293 L770.831921,1363.03898 L772.937213,1366.61724 L774.621446,1370.7134 L776.087353,1374.80957 L778.20824,1383.51981 L778.83203,1387.61598 L779.253088,1392.23005 Z" id="Combined-Shape"></path>
        </g>
    </g>
</svg>