<?xml version="1.0" encoding="UTF-8" standalone="no"?>
<svg width="193px" height="318px" viewBox="0 0 193 318" version="1.1" xmlns="http://www.w3.org/2000/svg" xmlns:xlink="http://www.w3.org/1999/xlink">
    <!-- Generator: Sketch 42 (36781) - http://www.bohemiancoding.com/sketch -->
    <title>Page 1</title>
    <desc>Created with Sketch.</desc>
    <defs>
        <filter x="-50%" y="-50%" width="200%" height="200%" filterUnits="objectBoundingBox" id="filter-1">
            <feGaussianBlur stdDeviation="0" in="SourceGraphic"></feGaussianBlur>
        </filter>
    </defs>
    <g id="Mkt" stroke="none" stroke-width="1" fill="none" fill-rule="evenodd">
        <g id="iPhone-7" transform="translate(-91.000000, -161.000000)">
            <g id="Page-1" transform="translate(91.000000, 161.000000)">
                <ellipse id="Oval" fill="#FFA700" filter="url(#filter-1)" cx="91" cy="310.5" rx="48" ry="7.5"></ellipse>
                <path d="M131.79844,269.08283 L129.580137,263.66177 L126.871856,258.481483 L122.340178,253.301197 L116.684723,249.239657 L110.492974,245.421324 L103.691801,242.478532 L96.7931208,240.189964 L89.3093931,238.489955 L82.020681,238.125146 L74.6344612,238.416993 L67.9307962,239.849476 L61.4952779,242.330177 L60.9346077,242.673097 C60.9589847,242.746059 60.9833617,242.792268 60.9833617,242.867662 C62.3728486,243.838053 63.2504193,245.397004 63.2504193,247.145654 C63.2504193,248.702172 62.5434873,250.088446 61.422147,251.063702 C61.7878015,251.012629 62.1534559,250.99074 62.5434873,250.99074 C69.417791,250.99074 75.0001156,258.089922 75.0001156,266.896409 C75.0001156,275.311335 69.8809533,282.194063 63.396681,282.751005 C63.3723041,282.777757 63.3235502,282.802078 63.2991732,282.823966 C67.8820423,283.553584 71.441079,288.125856 71.441079,293.695272 C71.441079,299.7511 67.1994873,304.690613 61.9828172,304.690613 C61.8121784,304.690613 61.6415397,304.690613 61.4709009,304.666292 L62.5922413,305.39591 L69.393414,308.314381 L76.1141428,309.24586 L83.410168,309.479338 L90.69888,309.846579 L98.0850999,309.530411 L105.22755,308.190346 L111.560685,307.421816 L117.196639,305.493192 L121.584493,301.626218 L125.606692,297.370114 L128.775697,292.603277 L130.750231,286.960899 L132.334733,280.902639 C132.334733,280.902639 132.488308,280.581608 132.554126,280.664298 C133.348815,274.584149 131.79844,269.08283 131.79844,269.08283" id="Fill-1" fill="#482872"></path>
                <path d="M5.30588984,92.343838 C5.30588984,92.343838 -5.83438241,32.8751204 51.6952511,9.72677856 C51.6952511,9.72677856 75.4798542,-4.01922144 114.607318,1.17322548 C154.64648,6.48727537 176.617437,25.8002594 187.891783,56.7555121 C199.166129,87.7131968 190.010141,118.439836 177.504759,130.746057 C164.999377,143.05471 142.789525,161.317044 137.255955,170.230542 C131.724822,179.14404 117.959151,171.519533 114.91203,171.519533 C111.86491,171.519533 68.2910877,184.579693 68.2910877,184.579693 L56.4780113,205.872373 C56.4780113,205.872373 46.5322103,161.87885 83.3121726,134.323616 C83.3121726,134.323616 121.971599,107.622035 121.410929,96.3713285 C120.852696,85.1206214 118.685584,69.964027 98.6672218,65.4112117 C78.6512972,60.8608285 67.7840469,90.133096 67.7840469,90.133096 L43.3047003,109.19801 L5.30588984,92.343838 Z" id="Fill-3" fill="#482872"></path>
                <path d="M190.693427,74.3954825 L189.693972,68.0502394 L186.400644,54.5498774 L184.08727,48.2022022 L181.454558,41.8545271 L178.161231,36.3094315 L173.873323,31.542595 L169.266077,27.1892086 L164.656393,23.2249517 L154.78616,16.077129 L149.518299,12.888699 L144.228498,10.1161513 L138.646173,7.73273301 L133.041909,6.15189437 L127.435208,4.96018524 L109.981302,2.19006953 L98.4509981,0.606798832 L90.8697625,0.606798832 L85.9456159,0.995928344 L78.0474798,1.79850796 L73.0989562,2.57919904 L71.1244222,2.99264915 L66.5171761,4.18192622 L64.5426421,4.57105573 L59.252841,6.54345594 L53.987417,8.92444214 L51.6959824,9.72702176 L41.7989353,15.2721173 L39.5075007,16.4662585 L35.5584327,18.8472447 L33.5595217,20.4305154 L29.9517311,23.2249517 L27.9771971,24.8057903 L24.028129,28.7700472 L19.396506,34.3175748 L15.4474379,40.6628179 L12.8147259,46.6213636 L11.8396473,49.3963434 L9.8651133,54.1631799 L9.20693529,56.9332956 L7.54930178,62.8942734 L6.23294576,70.4312256 L5.23349026,77.1704623 L5.23349026,79.5514485 L5.13598241,81.2052489 L4.98972063,84.0021173 L4.91658974,86.361215 L4.91658974,88.2825419 L5.03847455,89.9387744 L5.30662115,92.3440812 L5.52601382,94.5572553 L6.79361592,100.953572 L8.89003476,106.963191 L11.5958777,112.189686 L14.8867677,116.640355 L18.7627049,119.926067 L22.9555426,122.817786 L27.0752494,124.739113 C26.877796,124.812075 26.6705918,124.92395 26.468263,125.011504 C26.8802337,125.225525 27.2336997,125.495484 27.592041,125.76301 C28.0625164,125.862725 28.4818002,126.025673 28.9059594,126.186188 C29.0717227,126.174028 29.2179845,126.137547 29.3910609,126.137547 C29.9956096,126.137547 30.5562798,126.203213 31.0974484,126.290767 C31.5971761,126.222669 32.0920285,126.137547 32.6405102,126.137547 C33.7228473,126.137547 34.6784243,126.327248 35.5754965,126.587478 C36.4676934,126.310223 37.4427719,126.137547 38.5324222,126.137547 C39.2978588,126.137547 40.0121039,126.217805 40.6824704,126.351568 C40.5995887,126.261582 40.5215824,126.159436 40.4338253,126.076746 L43.0177835,125.736257 L47.8931761,124.279454 L52.2322756,121.601756 L56.2788515,118.537361 L60.1060348,113.892128 L62.7875007,108.395674 L65.2251971,102.512522 L66.8096997,96.2134878 L67.7847782,90.1333392 L68.1504327,88.6716714 L69.8080662,82.7398785 L72.4407782,78.3597394 L75.3903908,74.784612 L79.3638358,71.6229347 L83.6298044,69.2395165 L88.2370505,66.8560982 L93.185574,65.6643891 L98.4509981,65.6643891 L103.713985,66.8560982 L108.348045,68.852819 L111.955836,71.2338052 L115.585566,74.784612 L118.535178,79.5514485 L120.853427,85.1208646 L121.852883,90.6659602 L121.192267,96.6269379 L118.878893,103.361311 L115.585566,108.517277 L113.613469,110.903127 L109.323124,114.867384 L107.031689,116.85924 L101.741888,120.823497 L96.8153039,123.987607 L94.8432075,125.176884 L90.8697625,127.973752 L88.8952285,129.167893 L84.9461604,132.327139 L83.3129039,134.323859 L79.3638358,138.677246 L75.0734903,144.246662 L71.4413227,149.789325 L70.4662442,152.172744 L68.1504327,157.331142 L66.8340766,160.101257 C63.933218,162.630599 60.8617206,173.650261 59.0090714,181.043721 C57.6927154,186.32129 55.961951,193.639357 55.961951,199.089602 C55.961951,208.572202 57.2295531,215.065801 58.9359405,219.51647 C58.9603175,219.543222 58.9603175,219.565111 58.9603175,219.589432 C59.2284641,220.294729 59.5209876,220.927064 59.8378882,221.535079 C59.8622651,221.316194 59.9110191,221.097308 59.959773,220.878423 C58.1315007,215.45493 60.1304117,209.739591 64.7132808,207.842584 C67.8335321,206.553593 71.3925688,207.356173 74.1715426,209.642308 C74.2690505,209.642308 74.3421814,209.666629 74.4396892,209.666629 C74.4153123,209.523137 74.4153123,209.374782 74.4153123,209.228858 C74.1227887,208.280355 73.903396,207.25889 73.7571342,206.237425 C72.2457625,195.706608 78.6812808,186.075652 88.1395426,184.73802 C95.7207782,183.643593 102.936359,188.191544 106.249189,195.463402 C107.275459,189.821024 111.663312,185.56492 116.926299,185.56492 C121.777314,185.56492 125.899459,189.188688 127.286508,194.201163 L129.090403,185.49439 L131.725553,179.144283 L134.699543,173.599187 L141.939501,164.065514 L146.205469,159.298678 L150.495815,155.747871 L165.000108,143.052521 L169.266077,139.479825 L173.556422,135.099686 L177.50549,130.7463 L181.454558,125.979463 L184.745448,120.823497 L187.37816,115.280834 L189.352694,109.319856 L190.693427,102.972181 L191.351605,96.2134878 L191.351605,81.5457373 L190.693427,74.3954825 Z" id="Fill-5" fill="#482872"></path>
                <path d="M106.542931,196.095737 C106.472238,196.19302 106.421046,196.314623 106.347915,196.438658 C102.130701,191.328901 95.4757897,188.750918 88.9671405,189.991268 C88.0408159,190.137192 87.0901143,190.404718 86.1637897,190.745206 C81.995329,192.253083 78.7288159,195.195875 76.705528,198.870717 C76.0717269,200.011353 75.5598107,201.227383 75.1697793,202.492054 C74.5116013,204.607945 74.2434547,206.894081 74.4140934,209.228858 C74.1215698,208.280355 73.9021772,207.25889 73.7559154,206.237425 C72.2445437,195.706608 78.680062,186.075652 88.1383238,184.73802 C95.938952,183.619272 103.349549,188.459071 106.542931,196.095737" id="Fill-7" fill="#C2B49A"></path>
                <path d="M127.287239,194.200433 L127.262862,194.322036 C123.755017,190.428309 118.219009,188.776941 113.124224,190.622874 C110.274557,191.671092 108.007499,193.616739 106.542444,196.095008 C106.444936,195.876122 106.347428,195.659669 106.24992,195.465104 C107.273752,189.820294 111.664044,185.56419 116.92703,185.56419 C121.778046,185.56419 125.90019,189.187959 127.287239,194.200433" id="Fill-9" fill="#C2B49A"></path>
                <path d="M74.1708113,209.643038 C72.391293,209.545756 70.5630207,209.788962 68.8078794,210.445618 C64.0787485,212.17238 60.8853663,216.182846 59.9590417,220.879153 C58.1307694,215.45566 60.1296804,209.74032 64.7125495,207.843314 C67.8328008,206.55189 71.3918375,207.356902 74.1708113,209.643038" id="Fill-11" fill="#C2B49A"></path>
                <path d="M63.2501755,247.14687 C63.2501755,248.849312 62.4213587,250.332868 61.1293797,251.305692 C61.1050027,251.281371 61.0562488,251.281371 61.0318718,251.257051 C61.4706572,249.968059 61.6900498,248.581785 61.6900498,247.12255 C61.6900498,245.638993 61.4462802,244.204078 60.9831179,242.866446 C62.3726048,243.839269 63.2501755,245.395787 63.2501755,247.14687" id="Fill-13" fill="#C2B49A"></path>
                <path d="M74.9993843,266.895436 C74.9993843,275.310362 69.880222,282.19309 63.3959497,282.752464 C69.6364524,278.666604 73.0492272,271.15154 71.3428398,263.636477 C70.0508607,257.969778 66.1505466,253.54343 61.1288921,251.305935 C61.2264,251.232973 61.3239079,251.160012 61.4214157,251.062729 C61.7870702,251.014088 62.1527246,250.989767 62.542756,250.989767 C69.4170597,250.989767 74.9993843,258.091381 74.9993843,266.895436" id="Fill-15" fill="#C2B49A"></path>
                <path d="M71.4403476,293.695515 C71.4403476,299.751343 67.198756,304.690856 61.9820859,304.690856 C61.8114471,304.690856 61.6408084,304.690856 61.4701696,304.666535 L61.3482848,304.591142 C66.4918241,301.845346 69.3683058,296.078934 68.0519497,290.314953 C67.3450178,287.226237 65.5654995,284.672575 63.1765571,282.899603 C63.225311,282.875283 63.249688,282.84853 63.2984419,282.82421 C67.881311,283.553827 71.4403476,288.126099 71.4403476,293.695515" id="Fill-17" fill="#C2B49A"></path>
                <path d="M132.407864,280.903612 L130.823362,286.95944 L128.848828,292.60425 L125.679822,297.371087 L121.657623,301.627191 L117.26977,305.491733 L111.636254,307.420356 L105.300681,308.191319 L98.1582308,309.531384 L90.7720109,309.84512 L83.4832988,309.480311 L76.1872737,309.244401 L69.4665449,308.315354 C69.4665449,308.315354 70.8121533,305.720347 75.6046643,303.974128 C77.7839648,303.181277 84.1853554,306.415916 85.328635,303.375842 C88.9851795,293.647604 96.2982685,289.999515 96.7053638,293.647604 C97.1100214,297.295693 91.1279146,302.969688 98.3849365,301.349936 C105.641959,299.727752 101.456434,295.889963 101.456434,293.757046 C101.456434,291.62413 107.674997,296.079663 106.860807,293.24145 C106.049054,290.405668 111.453427,291.19852 111.207219,290.802094 C108.160099,285.937975 112.55039,277.907315 114.173896,281.723216 C115.799839,285.54155 114.173896,295.359774 117.018687,294.909843 C119.863479,294.45748 114.580991,280.485298 119.456384,279.972133 C124.331776,279.461401 125.143529,289.189639 125.143529,286.757579 C125.143529,284.32552 128.700128,273.836047 132.407864,280.903612" id="Fill-19" fill="#37225E"></path>
                <path d="M4.91683351,73.7113442 C4.91683351,73.7113442 14.1727665,80.4141 14.3580314,84.9790756 C14.3580314,84.9790756 17.7756817,76.2115013 22.1415958,72.5634121 C22.1415958,72.5634121 32.7431372,75.9585671 36.0949696,82.950738 C36.0949696,82.950738 45.2363309,72.6144854 53.8706513,70.9947338 C53.8706513,70.9947338 60.1672209,73.9326616 58.5412775,89.2351796 C58.5412775,89.2351796 64.3308063,84.9839397 70.6273759,86.4504715 C70.6273759,86.4504715 68.2920628,90.8257465 67.785022,92.564669 C67.2779812,94.3011594 50.3140524,106.259596 50.3140524,106.259596 L15.2721675,98.0513951 L5.62376545,84.4707752 C5.62376545,84.4707752 4.57555602,76.5398293 4.91683351,73.7113442" id="Fill-21" fill="#37225E"></path>
                <path d="M73.6186731,87.6244266 C71.7904008,88.6702122 68.7432804,96.720329 68.7432804,97.1824203 C68.7432804,97.6445116 67.2319087,103.262569 67.2319087,103.262569 C65.5498982,107.372749 63.2584637,115.422866 52.8982542,123.327059 C42.5380448,131.231253 32.9335213,123.789151 25.132893,129.553132 C19.9405998,133.395785 22.9633432,122.816327 12.6762647,117.100987 C2.41356314,111.38808 3.38864168,85.4842143 3.38864168,85.4842143 C2.85234848,74.7588322 0.560913927,72.910467 0.000243769633,72.6186199 C7.21582492,74.2724203 12.2618563,81.8847663 15.0164532,88.1594797 C16.1621705,80.5957748 24.425961,75.0044702 24.425961,75.0044702 C31.105249,78.2123566 34.7617935,82.0306899 36.6875736,85.7274203 C41.4167045,77.1179298 53.6783171,72.5724107 53.6783171,72.5724107 C58.0417935,79.98776 55.4578354,94.8719638 55.2140658,96.187708 C58.4805788,84.732708 75.4469453,86.5567525 73.6186731,87.6244266" id="Fill-23" fill="#9BC63B"></path>
                <path d="M17.8895221,118.343526 C17.8895221,118.343526 19.5642195,125.340561 16.1343807,132.63674 C12.7069797,139.932918 10.1108331,143.099459 16.2879556,145.429372 C26.3702676,149.230681 27.3234069,123.05929 34.7632561,122.210501 C42.205543,121.35928 39.5801441,112.723037 39.5801441,112.723037 C39.5801441,112.723037 17.6628163,109.371659 17.8895221,118.343526" id="Fill-25" fill="#9BC63B"></path>
                <path d="M33.3513424,102.93643 C33.3513424,102.93643 36.822622,98.2060741 35.2624963,89.3071686 C33.7048084,80.405831 25.2265005,77.5797779 25.2265005,77.5797779 C36.2960796,82.3417503 33.3513424,102.93643 33.3513424,102.93643" id="Fill-27" fill="#91B73D"></path>
                <path d="M25.2265005,77.5802643 C25.2265005,77.5802643 18.559401,78.3390669 17.5575079,87.6125096 C17.5575079,87.6125096 20.2438492,81.1529597 25.2265005,77.5802643" id="Fill-29" fill="#91B73D"></path>
                <path d="M66.8089684,96.2127582 C65.2244658,102.511792 61.9189495,112.928303 57.0435569,117.288985 C54.866694,119.239497 51.9780239,121.068406 48.4823673,122.571418 C47.0977558,122.921635 38.017337,125.071576 34.7630124,122.209042 C31.2381035,119.105734 41.6811946,112.342176 41.6811946,112.342176 C53.8696762,108.08364 59.7689014,92.6133102 55.8320218,79.5409907 C55.8320218,79.5409907 54.3767171,101.395477 47.6730521,106.663318 C38.0051485,113.288248 41.6665684,96.9666966 41.9639673,95.7020257 C43.5021537,90.1350416 46.1397412,83.0893654 50.5178438,77.5807507 C50.5178438,77.5807507 40.674426,82.8461594 40.0381872,101.261714 C40.0308741,101.366292 40.0284364,101.43439 40.0284364,101.43439 C40.0333118,101.607066 40.0333118,101.75299 40.0381872,101.920802 C40.0138103,102.900922 39.9967464,103.885906 40.0284364,104.94142 C40.0284364,104.94142 40.0381872,104.87089 40.0552511,104.741991 C40.0186857,107.97663 39.7871045,110.014696 39.526271,111.286663 C37.4615422,112.376225 35.5674521,113.674945 33.9293202,115.946489 C32.5252071,116.513158 33.1102542,114.567511 33.1102542,114.567511 L33.0371234,114.657497 C35.9672343,109.8785 38.0124616,103.757007 36.8228658,98.2046149 C36.8228658,98.2046149 35.8429118,102.404782 34.0975213,106.930844 C27.1452113,124.480585 23.3180281,107.543723 22.3770773,102.41451 C22.3331987,102.142119 22.2844448,101.877025 22.2381286,101.609498 C22.2088762,101.390613 22.1771862,101.18632 22.1430584,101.035532 C22.1430584,101.035532 22.1576846,101.137679 22.186937,101.327379 C21.4897558,97.3388017 20.468361,93.7296255 18.9521139,92.0442083 C18.9521139,92.0442083 23.6251778,111.928726 20.380604,117.177111 C20.107582,117.619745 19.8686877,117.760805 19.6517328,117.858087 C18.9057977,117.515167 18.766849,115.126885 18.791226,113.091251 C18.8302291,112.193821 18.8741076,111.233157 18.927737,110.109546 C19.5786019,96.5897274 6.89283016,81.683635 6.89283016,81.683635 C23.6519925,115.732467 13.291783,125.613925 4.91585843,88.2818123 C4.91585843,88.2818123 6.08107728,107.541291 12.9236909,114.997985 C14.5813244,116.805006 16.9385768,118.602297 18.0818563,119.436494 L18.0818563,119.438926 L18.0964825,119.448654 C18.2939359,119.589714 18.4523862,119.706452 18.5645202,119.784278 C18.3524406,120.878705 18.1427987,122.64438 17.9136553,125.613925 C17.8332113,126.640254 17.6967003,127.540116 17.5382501,128.34756 C16.8532574,130.516957 16.0805076,132.752019 15.3930773,134.184502 C15.3930773,134.184502 22.4550836,119.139783 26.2895799,123.78988 C26.2895799,123.78988 27.7912008,124.735951 28.159293,126.136818 C27.4889265,134.51283 20.6804406,141.874674 20.5341788,142.03519 C20.002761,142.348926 19.4640302,142.592132 18.927737,142.713735 C13.6013705,143.922468 13.9475234,137.774222 12.553161,140.661077 C12.553161,140.661077 12.0851234,142.925324 13.6013705,143.922468 C15.1176176,144.922045 17.1409055,146.315615 18.7010312,145.807314 C20.1612113,145.328199 22.0674898,145.038784 23.9981453,141.179105 C25.2096804,139.459639 28.3201809,132.012673 29.9729391,127.955998 C30.6311171,127.418513 31.5842563,127.114506 33.2516406,127.146122 C34.5558082,127.170443 35.8624134,127.189899 37.0398207,127.209356 C39.3288176,127.508499 42.3954396,127.581461 46.1494919,126.81293 C54.4791003,125.108056 62.3821118,113.378234 62.3821118,113.378234 C62.3821118,113.378234 67.3793893,106.658454 68.6689307,98.0416669 C69.2052239,94.4519471 69.926782,94.0676817 70.1973663,93.464531 C71.4771569,90.6044291 71.9378815,89.0381828 73.6247673,87.612996 C73.6247673,87.612996 68.393471,89.9112921 66.8089684,96.2127582" id="Fill-31" fill="#91B73D"></path>
                <path d="M69.0109395,148.573296 L77.5550651,139.10772 L84.8949688,132.879216 L91.0355259,128.272895 L95.0114086,125.476027 L96.9859426,124.284318 L101.907652,121.122641 L107.19989,117.158384 L109.488887,115.164095 L113.779233,111.199838 L115.756204,108.81642 L119.044657,103.660454 L121.362906,96.9236492 L122.018646,90.9651035 L121.021628,85.420008 L118.705817,79.8505918 L115.756204,75.0837553 L112.124037,71.5329485 L108.516246,69.1495303 L103.884623,67.1528094 L98.6191992,65.9635324 L93.3513374,65.9635324 L88.4052515,67.1528094 L83.7955677,69.5386598 L79.5295992,71.919646 L75.5585918,75.0837553 L71.4096327,82.5963869 C70.6710107,82.1707765 65.8004934,84.7949687 65.8784997,83.1022553 C65.9370044,81.9008179 69.8007531,80.5558891 70.7538924,78.4424294 C71.7655363,76.2073668 63.3116054,70.1272182 62.6558651,69.9302213 C57.7268431,65.4941449 80.8508306,69.8791481 80.4437353,64.4070143 C80.0390777,58.9348806 72.201884,43.7855823 79.514973,47.8373933 C86.828062,51.8916364 86.9450714,60.7589252 89.180439,60.7589252 C91.4133688,60.7589252 92.5176452,55.7415865 99.0189814,54.5255568 C105.51788,53.3095271 104.413603,62.9891237 104.413603,62.9891237 C104.413603,62.9891237 106.941494,63.2420579 109.988615,62.42975 C113.035735,61.6198742 120.348824,47.8373933 123.395945,54.7298498 C126.443065,61.6198742 110.507844,64.4070143 120.665725,67.2452277 C130.823605,70.0834411 134.884808,54.6787765 134.682479,64.0032925 C134.48015,73.3253763 127.661913,75.604216 125.426546,76.6183848 C124.897566,76.8567266 125.238843,82.0759262 129.08309,82.9003944 C134.063304,83.9705005 142.98771,80.8720568 143.506939,83.3065483 C143.957913,85.4248721 132.68113,84.8557702 128.271337,87.1564984 C125.102332,88.8078668 128.256711,93.6598254 128.880761,94.0465228 C132.130211,96.0748604 139.211719,84.8776587 139.7602,98.8620005 C140.313557,112.846342 136.510751,97.6459708 131.837687,102.916244 C130.672468,104.231988 138.880192,112.138613 137.412699,113.502998 C135.825758,114.979258 127.208502,109.144748 125.01945,109.451187 C121.121574,109.993537 124.756179,115.983699 133.261302,117.5086 C136.891032,118.155528 134.458211,122.119785 127.864242,122.42136 C124.773243,122.56242 122.581754,108.437019 115.473432,119.077279 C113.659786,121.784161 120.963124,127.438699 118.635124,127.438699 C111.524364,127.438699 106.446642,126.628823 109.086667,132.100957 C114.337465,142.972263 105.722646,136.607563 104.706127,135.999548 C103.689608,135.391533 103.713985,126.918238 101.164154,127.236838 C90.8185709,128.52583 97.9488327,136.427591 94.2435342,138.635901 C91.3646149,140.350503 87.8031405,135.829304 86.474596,137.621732 C84.3830526,140.440489 90.8697625,142.726625 88.6075803,144.463115 C85.9163636,146.52307 84.1758484,141.525187 81.7503405,142.456666 C76.721373,144.395018 69.1547636,148.950265 69.0109395,148.573296" id="Fill-33" fill="#37225E"></path>
                <path d="M64.5462986,216.340687 C64.5462986,216.340687 61.8502065,223.048306 60.1438191,223.126132 C55.2684264,223.354746 55.536573,215.134385 59.2857499,210.435646 C63.2494442,205.471813 66.3136285,204.355498 68.0638945,203.951776 C69.8165981,203.545622 71.6448704,208.003587 71.6448704,201.721577 C71.6448704,195.439568 75.4647405,184.417474 81.8003133,184.57799 C88.1383238,184.738506 89.9275929,179.631181 95.6147384,182.063241 C101.304322,184.4953 103.515312,182.902301 104.807291,187.535374 C106.096833,192.17088 105.974948,185.621344 109.022068,185.565406 C112.069189,185.507037 116.742253,179.329606 118.772854,181.406585 C120.805892,183.481131 128.133608,182.695576 129.540158,188.143389 C129.552347,188.199327 129.566973,188.252832 129.579161,188.306337 C130.488422,192.153855 127.287727,198.681503 122.70242,192.800783 C121.286119,190.979171 118.182931,190.599769 115.001737,192.618379 C104.916988,199.021991 114.102227,211.705181 106.542931,211.705181 C99.5564934,211.705181 107.48632,198.698527 99.0689541,193.817384 C90.4736369,188.834094 76.7225918,195.366606 76.9249206,202.054769 C77.1296871,208.742933 80.101239,212.05783 73.5365227,211.855969 C66.9718065,211.651676 64.5462986,216.340687 64.5462986,216.340687" id="Fill-35" fill="#FFFFFF" opacity="0.4"></path>
                <path d="M63.8716468,243.187364 C63.8716468,243.187364 65.4711143,246.466751 65.7681922,248.482281 C66.0652701,250.497811 65.4711143,247.877622 71.1155948,252.596334 C76.7600753,257.315046 78.0957377,265.614289 76.907426,269.913296 C75.7191143,274.209933 76.5770753,279.549902 71.8571013,282.063387 C67.1395039,284.579243 72.4512571,284.946781 73.3424909,289.95241 C74.2337247,294.958039 73.4922182,297.625652 71.8571013,300.293266 C70.224361,302.96088 63.4557377,305.457766 66.312439,306.617289 C67.4270753,307.067819 68.5417117,307.660622 69.8607377,308.177546 C70.1150364,308.277137 70.2101013,308.229713 70.609374,308.270023 C71.4198026,308.355387 72.6247506,308.514258 73.083439,308.61622 C74.0744909,308.832001 80.3701662,309.211395 80.3701662,309.211395 C80.3701662,309.211395 77.8208008,311.019043 63.8867187,308.777344 C58.3353228,307.884241 59.4312662,305.713757 60.1308594,304.838867 C62.0620117,302.423828 63.1850586,304.024902 65.9915948,300.51616 C68.798131,297.007417 68.5559714,290.630577 66.659426,290.215614 C64.7628805,289.800652 65.4616078,284.562645 63.8716468,285.176789 C60.4207896,286.50941 65.8989065,298.958273 62.7665169,299.10766 C56.5088675,299.404061 62.0202571,285.323804 61.8039844,283.327243 C61.5591922,281.039023 66.930361,279.644751 68.5678545,276.137728 C70.2029714,272.628334 72.8980623,263.985266 69.1834,261.611683 C65.4711143,259.24047 65.504387,253.687092 62.7665169,254.351031 C58.4885948,255.387251 62.3506078,248.719402 61.0149455,246.791607 C59.6769065,244.866183 56.1428675,242.39538 60.0072571,242.791372 C60.0072571,242.791372 62.721361,240.619342 63.8716468,243.187364 Z" id="Fill-28" fill="#FFFFFF" opacity="0.4"></path>
            </g>
        </g>
    </g>
</svg>