<?xml version="1.0" encoding="UTF-8" standalone="no"?>
<svg width="220px" height="350px" viewBox="0 0 220 350" version="1.1" xmlns="http://www.w3.org/2000/svg" xmlns:xlink="http://www.w3.org/1999/xlink">
    <!-- Generator: Sketch 42 (36781) - http://www.bohemiancoding.com/sketch -->
    <title>Group</title>
    <desc>Created with Sketch.</desc>
    <defs>
        <linearGradient x1="50%" y1="0%" x2="50%" y2="100%" id="linearGradient-1">
            <stop stop-color="#FFBE00" stop-opacity="0" offset="0%"></stop>
            <stop stop-color="#FFBE00" offset="100%"></stop>
        </linearGradient>
        <filter x="-50%" y="-50%" width="200%" height="200%" filterUnits="objectBoundingBox" id="filter-2">
            <feGaussianBlur stdDeviation="0" in="SourceGraphic"></feGaussianBlur>
        </filter>
        <filter x="-50%" y="-50%" width="200%" height="200%" filterUnits="objectBoundingBox" id="filter-3">
            <feGaussianBlur stdDeviation="0" in="SourceGraphic"></feGaussianBlur>
        </filter>
        <polygon id="path-4" points="0.217759981 0.821186246 106.309525 0.821186246 106.309525 65.3834491 0.217759981 65.3834491 0.217759981 0.821186246"></polygon>
        <polygon id="path-6" points="46.9819953 0.821186246 0.217759981 0.821186246 0.217759981 65.3834491 46.9819953 65.3834491 46.9819953 0.821186246"></polygon>
    </defs>
    <g id="Mkt" stroke="none" stroke-width="1" fill="none" fill-rule="evenodd">
        <g id="iPhone-7-Copy" transform="translate(-89.000000, -129.000000)">
            <g id="Group" transform="translate(89.000000, 128.000000)">
                <path d="M92.5,351 C120.942665,351 144,347.520346 144,344.461538 C144,341.402731 134.735616,338 92.5,338 C50.264384,338 41,341.402731 41,344.461538 C41,347.520346 64.0573354,351 92.5,351 Z" id="Oval" fill="url(#linearGradient-1)" filter="url(#filter-2)"></path>
                <path d="M93,348 C119.509668,348 141,345.313708 141,342 C141,338.686292 145.018066,325 93,325 C40.9819336,325 45,338.686292 45,342 C45,345.313708 66.490332,348 93,348 Z" id="Oval" fill="#FFFFFF" opacity="0.3" filter="url(#filter-3)"></path>
                <path d="M65.7206329,335.697728 C74.5571889,335.697728 81.4052032,339.035362 81.4052032,335.721654 C81.4052032,332.407945 74.2417592,329.721654 65.4052032,329.721654 C56.5686472,329.721654 49.4052032,332.407945 49.4052032,335.721654 C49.4052032,339.035362 56.8840769,335.697728 65.7206329,335.697728 Z" id="Oval-2" fill="#FFFFFF" opacity="0.3" transform="translate(65.405203, 333.454945) rotate(-10.000000) translate(-65.405203, -333.454945) "></path>
                <g id="Page-1">
                    <path d="M197.948753,117.845773 L197.948753,133.411466 L197.249929,140.590271 L195.8264,147.32508 L193.729929,153.649449 L190.934635,159.534985 L187.440518,165.010082 L183.247576,170.066997 L179.054635,174.69024 L174.499341,179.334134 L169.969929,183.128756 L154.569929,196.603535 L150.014635,200.372343 L145.485224,205.431839 L137.798165,215.55083 L134.640518,221.436366 L131.845224,228.173756 L129.955812,237.182756 C130.136988,234.988587 130.188753,232.794418 130.136988,230.574435 C131.689929,226.263538 132.984047,221.849386 134.096988,217.386188 C137.539341,210.287406 140.671106,203.056974 142.767576,195.444498 C144.424047,189.375684 145.381694,183.15457 145.899341,176.907641 C145.899341,176.8302 145.925224,176.752759 145.925224,176.649504 C146.287576,173.835805 148.125224,158.786386 148.125224,158.786386 C148.927576,152.103205 149.522871,109.223979 111.734635,100.989392 C111.708753,100.989392 111.708753,100.963578 111.682871,100.963578 C111.682871,100.963578 111.656988,100.963578 111.631106,100.989392 L111.553459,100.963578 C111.475812,100.937764 111.398165,100.911951 111.294635,100.911951 C108.344047,100.266607 105.1864,99.8535868 101.744047,99.6987042 C99.6993412,99.5954492 97.8358118,99.7503317 96.1275765,100.137538 C95.7652235,100.214979 95.4028706,100.318234 95.0405176,100.421489 C94.3675765,100.627999 93.7205176,100.860323 93.1252235,101.144274 L88.4664,102.254266 L83.5746353,104.784014 L79.9304,107.941036 L77.0186353,110.308157 L73.8661647,113.857548 L70.7913412,118.374955 L67.5793412,123.834564 L67.4240471,126.648263 L65.7158118,133.411466 L64.0334588,140.097229 L61.4452235,146.344157 L58.5981647,152.178065 L54.5346353,157.108492 L50.2381647,160.361025 L45.6311059,163.200538 L40.4546353,164.749363 L37.7111059,165.113337 C37.7887529,165.214011 37.8664,165.317266 37.9699294,165.394707 C37.2452235,165.265638 36.4946353,165.188197 35.6922824,165.188197 C34.5275765,165.188197 33.4922824,165.368893 32.5346353,165.655426 C31.6028706,165.368893 30.5675765,165.188197 29.4287529,165.188197 C28.8334588,165.188197 28.3158118,165.265638 27.7981647,165.34308 C27.2028706,165.239825 26.6075765,165.188197 25.9864,165.188197 C25.8052235,165.188197 25.6499294,165.214011 25.4687529,165.239825 C25.0028706,165.059128 24.5628706,164.878432 24.0711059,164.775177 C23.6828706,164.491226 23.3205176,164.207274 22.8805176,163.974951 C23.0875765,163.897509 23.3205176,163.768441 23.5275765,163.690999 L19.1534588,161.651713 L14.7016941,158.579876 L10.5864,155.095019 L7.09228235,150.371103 L4.21934118,144.821146 L1.99345882,138.445148 L0.647576471,131.656131 L0.414635294,129.30708 L0.129929412,126.751518 L0.000517647059,124.998764 L0.000517647059,122.956896 L0.0781647059,120.452962 L0.233458824,117.48438 L0.336988235,115.729045 L0.336988235,113.199297 L1.39816471,106.048888 L2.79581176,98.046624 L4.55581176,91.7222544 L5.25463529,88.7794865 L7.35110588,83.7199908 L8.3864,80.7772229 L11.1816941,74.4528532 L15.3746353,67.7154636 L20.2922824,61.8299277 L24.4852235,57.6222859 L26.5816941,55.9469733 L30.4122824,52.9758103 L32.5346353,51.2979163 L36.7275765,48.7681684 L39.1605176,47.5032945 L49.6687529,41.6177587 L52.1016941,40.7659048 L57.6922824,38.236157 L63.3087529,36.1452429 L65.4052235,35.7322229 L70.2969882,34.4673489 L72.3934588,34.0285151 L77.6475765,33.202475 L86.0334588,32.3506211 L91.2616941,31.9376011 L99.3111059,31.9376011 L111.553459,33.6154951 L130.085224,36.558263 L136.038165,37.8231369 L141.991106,39.5010309 L147.918165,42.0307787 L153.534635,44.976128 L159.125224,48.3551484 L169.607576,55.9469733 L174.499341,60.1520338 L179.391106,64.7726956 L183.9464,69.8321913 L187.440518,75.7177272 L190.235812,82.4551168 L192.694635,89.1925065 L196.188753,103.51914 L197.249929,110.259111 L197.948753,117.845773 Z" id="Fill-1" fill="#93ABB5"></path>
                    <path d="M1.98465882,138.448762 C1.98465882,138.448762 6.35877647,150.720621 12.8216,161.180354 C16.6832471,167.435026 26.7023059,169.67566 35.8983059,169.67566 C35.8983059,169.67566 59.1587765,161.087424 64.0246588,140.100843 C68.8905412,119.114261 1.98465882,138.448762 1.98465882,138.448762" id="Fill-3" fill="#93ABB5"></path>
                    <path d="M41.2264471,104.064068 C41.2264471,104.064068 64.2772706,100.628258 67.4323294,126.651102 C67.4323294,126.651102 73.6337412,113.609994 59.6676235,105.677428 C50.7796235,100.628258 41.2264471,104.064068 41.2264471,104.064068" id="Fill-5" fill="#759AA4"></path>
                    <g id="Group-9" transform="translate(26.765887, 0.877668)">
                        <mask id="mask-5" fill="white">
                            <use xlink:href="#path-4"></use>
                        </mask>
                        <g id="Clip-8"></g>
                        <path d="M0.217759981,65.3834491 C0.217759981,65.3834491 17.86176,13.0796215 46.9819953,0.818088596 C46.9819953,0.818088596 33.6965835,24.9616923 46.9819953,22.1144353 C55.0961129,20.3797511 63.53376,9.85290235 74.6709365,11.14359 C74.6709365,11.14359 62.8867012,21.4690915 74.6709365,23.405123 C86.4551717,25.3411545 88.3368188,20.4778433 106.309525,23.405123 C106.309525,23.405123 65.42576,37.2438763 97.1627012,36.6785551 C109.42576,36.4591382 35.0890541,25.475386 0.217759981,65.3834491" id="Fill-7" fill="#93ABB5" mask="url(#mask-5)"></path>
                    </g>
                    <path d="M67.4323294,126.651102 C69.7669176,114.247594 80.1069176,103.844651 92.4036235,100.192005 C95.4888,99.2652913 98.6619765,98.6870632 101.902447,98.4831346 C105.181741,98.3308334 108.404094,98.7877369 111.525506,99.5363357 C117.765741,101.059347 123.661741,103.865302 128.760565,107.72704 C133.8568,111.591359 138.153271,116.485646 141.305741,122.017534 C144.414212,127.575235 146.495153,133.644048 147.5848,139.849675 C149.867624,152.291904 148.578682,164.994852 145.884329,177.114409 C147.856565,164.845132 148.511388,152.245439 145.995624,140.162021 C143.557506,128.143137 137.190447,116.839295 127.349976,109.598537 C117.597506,102.43522 104.783153,98.8290389 93.0946824,102.476522 C87.3151529,104.231858 81.8565647,107.203021 77.3737412,111.333221 C72.8702118,115.450515 69.4459765,120.739753 67.4323294,126.651102" id="Fill-10" fill="#759AA4"></path>
                    <path d="M46.3283765,130.323883 C46.3283765,134.936801 44.0429647,138.674633 41.2269647,138.674633 C38.4083765,138.674633 36.1255529,134.936801 36.1255529,130.323883 C36.1255529,125.713547 38.4083765,121.975715 41.2269647,121.975715 C44.0429647,121.975715 46.3283765,125.713547 46.3283765,130.323883" id="Fill-12" fill="#759AA4"></path>
                    <path d="M16.7810824,164.512135 C17.1201412,164.74704 17.5756706,165.023247 18.1839059,165.335594 C18.2304941,165.358826 23.1429647,167.818877 30.8274353,168.329989 C50.9173176,169.72135 59.8622588,146.212765 59.9502588,145.975278 L59.9813176,145.897837 C60.8224941,144.023759 60.5792,143.484251 60.5740235,143.479088 C60.4782588,143.419717 60.1262588,143.419717 59.7354353,143.484251 C58.0608471,147.436337 48.2436706,168.164781 28.2754353,166.874093 C23.0575529,166.525608 19.0664941,165.356245 16.7810824,164.512135 M32.4787294,170.965573 C31.8808471,170.965573 31.2752,170.944922 30.6566118,170.906202 C22.4001412,170.356369 17.2159059,167.741435 17.0010824,167.630436 C15.3782588,166.801815 13.2222588,165.474988 13.2067294,163.575096 C13.1963765,162.462523 13.9521412,161.662296 14.5992,161.316392 L15.1970824,160.996302 L15.8027294,161.303485 C15.8493176,161.329299 20.7617882,163.78935 28.4462588,164.297881 C48.5413176,165.707312 57.4810824,142.185819 57.5690824,141.948333 L57.7813176,141.377849 L58.3533176,141.179083 C58.8114353,141.019038 61.1589647,140.301415 62.4919059,141.744404 C63.9439059,143.321625 62.7740235,145.995929 62.3599059,146.920062 C61.8992,148.107494 52.7368471,170.965573 32.4787294,170.965573" id="Fill-14" fill="#759AA4"></path>
                    <path d="M140.127835,213.07684 C140.831835,211.006577 141.957718,209.537775 143.288071,208.49748 C142.314894,207.859881 141.002659,207.710161 139.793953,208.285808 C139.773247,208.293552 139.755129,208.301296 139.737012,208.311621 C138.717247,209.289963 137.498188,210.077282 136.025482,210.498046 C134.560541,211.886826 103.742424,226.572271 101.488071,226.613573 L101.410424,226.616154 C99.8238353,228.482488 97.5487765,229.757688 94.6396,229.891919 C93.8036,229.928059 93.0116,230.34366 92.4810118,230.989004 C91.0807765,232.69013 74.2365412,246.404977 73.6541882,247.143251 C72.6732471,249.443256 62.7551294,263.003221 62.2323059,263.898958 C61.9424235,265.246436 59.2428941,275.187313 59.0280706,277.80999 C58.7537176,281.158034 63.0890118,282.724929 65.0690118,280.009322 L73.3151294,268.695154 C73.8301882,267.987857 74.5988941,267.512884 75.4607765,267.365745 C83.2228941,266.054407 122.059365,259.536434 124.947835,259.892664 C126.040071,260.026895 128.969953,261.529256 132.404541,263.013546 C131.069012,245.973888 134.651129,229.200111 140.127835,213.07684" id="Fill-16" fill="#93ABB5"></path>
                    <path d="M132.867318,276.93542 C130.688024,259.072303 131.358376,241.676414 136.131082,224.28827 C136.330376,223.560322 136.594376,222.922722 136.886847,222.326424 L134.580729,211.014838 C133.770612,211.812483 132.8052,212.447501 131.710376,212.909567 C130.030612,214.414509 127.771082,215.341223 124.993906,215.274107 C123.399553,217.537973 120.914847,219.138426 117.609671,219.267495 C116.784024,219.301052 115.9972,219.662445 115.370847,220.201952 C113.825671,221.533942 111.819788,222.383215 109.368729,222.427098 C108.504259,222.442586 107.688965,222.834955 107.039318,223.413183 C105.843553,224.47671 104.360494,225.248541 102.595318,225.56605 C101.831788,225.702863 101.138141,226.136534 100.648965,226.740576 C99.2383765,228.472679 97.2532,229.73239 94.7322588,230.093783 C93.6063765,231.165054 92.1957882,231.934303 90.5393176,232.334417 C90.0190824,233.064946 89.4056706,233.730941 88.6913176,234.288518 L88.4506118,234.474377 C87.4230824,235.272022 86.3049647,235.806366 85.1532,236.149689 C84.1826118,237.755305 82.8030824,239.069225 81.0353176,239.887521 C80.0336706,241.426021 78.6463765,242.693476 76.8734353,243.447238 C76.1487294,243.754421 75.5637882,244.342975 75.2221412,245.050272 C74.5388471,246.464865 73.5760235,247.729739 72.3052,248.679685 C71.6866118,249.993605 70.8066118,251.160387 69.6962588,252.092264 C69.2277882,252.484633 68.8188471,252.946699 68.5703765,253.506857 C67.1779059,256.640647 65.8656706,259.890599 64.7967294,262.665577 C62.7183765,268.052907 59.9412,275.538896 59.2294353,281.277293 C57.9922588,291.269797 58.4788471,298.27565 59.6953176,303.182845 C59.7186118,303.213821 59.7160235,303.237054 59.7134353,303.262867 C59.9049647,304.042443 60.1275529,304.744577 60.3837882,305.42606 C60.4381412,305.198899 60.5183765,304.974319 60.5986118,304.74974 C59.3795529,298.802251 62.2317882,293.040621 67.3073176,291.636353 C70.7652,290.683825 74.4094353,291.992583 77.0390824,294.759817 C77.1426118,294.772724 77.2176706,294.808863 77.3186118,294.82177 C77.3134353,294.664306 77.3315529,294.512005 77.3496706,294.357122 C77.1659059,293.321991 77.0675529,292.214581 77.0468471,291.120078 C76.8294353,279.831723 84.8684941,270.523284 95.0092,270.340006 C103.141435,270.172217 110.150376,275.90287 112.694612,283.990319 C114.508965,278.179643 119.688024,274.268859 125.2372,274.950342 C127.760729,275.262689 129.981435,276.481098 131.681906,278.290642 C132.178847,278.822405 133.894847,283.086838 134.528965,283.24172 C134.275318,282.516354 132.973435,277.792437 132.867318,276.93542" id="Fill-18" fill="#93ABB5"></path>
                    <path d="M112.919788,284.694776 C112.8292,284.787706 112.761906,284.911612 112.668729,285.030355 C108.892494,279.100936 102.217435,275.520568 95.1955529,275.982634 C94.2016706,276.016192 93.1637882,276.173656 92.1440235,276.413724 C87.5550824,277.459181 83.7296706,280.133486 81.1181412,283.742249 C80.3002588,284.862566 79.6014353,286.078393 79.0268471,287.358756 C78.0562588,289.501297 77.4764941,291.876162 77.3496706,294.356864 C77.1659059,293.321733 77.0675529,292.214323 77.0468471,291.11982 C76.8294353,279.831465 84.8684941,270.523026 95.0092,270.339748 C103.374376,270.177121 110.551553,276.238191 112.919788,284.694776" id="Fill-20" fill="#759AA4"></path>
                    <path d="M135.0272,285.390457 L134.985788,285.516944 C131.794494,280.960817 126.180612,278.500766 120.569318,279.786291 C117.4272,280.51682 114.784612,282.272155 112.918494,284.693486 C112.846024,284.453418 112.770965,284.208187 112.695906,283.991351 C114.510259,278.180676 119.689318,274.26731 125.235906,274.951375 C130.347671,275.581231 134.217082,279.933429 135.0272,285.390457" id="Fill-22" fill="#759AA4"></path>
                    <path d="M77.0396,294.760591 C75.1760706,294.427594 73.2193647,294.445664 71.2833647,294.910311 C66.0758353,296.113232 62.1857176,299.928505 60.5965412,304.750514 C59.3800706,298.800444 62.2323059,293.041395 67.3078353,291.637127 C70.7657176,290.6846 74.4099529,291.993357 77.0396,294.760591" id="Fill-24" fill="#759AA4"></path>
                    <path d="M141.074353,207.674538 C132.103529,214.272533 121.657412,218.521477 111.648706,223.113744 C106.601647,225.346634 101.619294,227.682778 96.8931765,230.42678 C92.1127059,233.152713 87.8628235,236.392339 83.4990588,239.877195 C79.1689412,243.276867 74.9785882,246.7927 71.4741176,250.930645 C67.98,255.055683 65.1122353,259.70474 63.1063529,264.75391 C59.0868235,274.898715 58.3595294,286.125116 58.7218824,297.124357 C57.4510588,286.194813 57.5908235,274.767065 61.4058824,264.11631 C63.2694118,258.811584 66.0931765,253.795971 69.7374118,249.474749 C73.3402353,245.112225 77.6367059,241.426021 81.9538824,237.948908 C84.0969412,236.20648 86.2555294,234.476958 88.5305882,232.775832 L92.0505882,230.44485 L95.6741176,228.307471 C100.571059,225.571213 105.667294,223.278952 110.781647,221.120922 C121.072471,216.959745 131.464235,213.23482 141.074353,207.674538" id="Fill-26" fill="#759AA4"></path>
                    <path d="M130.109812,212.829803 C128.380871,214.084351 126.641576,215.305342 124.899694,216.516007 L119.868165,220.408721 L114.986753,224.458899 L110.320165,228.743982 C104.261106,234.608866 98.6679294,240.946143 93.9081647,247.86681 C89.1044,254.751338 85.1392235,262.208932 82.1912235,270.06922 C79.2639294,277.942415 77.5375765,286.26735 77.0406353,294.760075 C76.9836941,292.640766 76.9500471,290.50855 76.9500471,288.36859 L77.4651059,281.971942 L78.6272235,275.647572 L80.3069882,269.426457 C82.8796941,261.207358 86.9069882,253.481302 91.7806353,246.400589 C96.7086353,239.343109 102.495929,232.899996 108.982047,227.288086 C115.447459,221.655525 122.518518,216.727679 130.109812,212.829803" id="Fill-28" fill="#759AA4"></path>
                    <path d="M133.913741,211.261617 C128.957271,215.657699 124.932565,220.892728 121.953506,226.646614 C118.989976,232.413407 116.880565,238.585475 115.488094,244.925333 C114.033506,251.257447 113.3088,257.75735 112.873976,264.280486 C112.672094,267.545925 112.581506,270.821691 112.581506,274.107781 L112.584094,279.043371 C112.635859,280.687707 112.682447,282.334625 112.695388,283.991868 C112.063859,280.744498 111.6808,277.458407 111.315859,274.16199 C111.054447,270.85783 110.922447,267.545925 110.883624,264.221114 C110.852565,257.571491 111.522918,250.898636 112.961976,244.362593 C114.457976,237.852365 116.725271,231.432484 120.224565,225.68118 L123.035388,221.507096 L126.239624,217.637614 L129.8968,214.212129 C131.224565,213.20023 132.567859,212.216726 133.913741,211.261617" id="Fill-30" fill="#759AA4"></path>
                    <path d="M150.238259,200.474824 C147.872612,203.458894 145.708847,206.471359 143.894494,209.674846 C142.087906,212.886077 140.622965,216.23412 139.344376,219.636373 C136.9192,226.50025 135.384376,233.653241 134.620847,240.93272 C134.149788,244.559552 133.924612,248.230268 133.810729,251.911309 C133.624376,255.59235 133.691671,259.281136 133.712376,262.993154 C133.880612,270.406864 134.343906,277.85155 135.0272,285.391748 C132.239671,278.316198 130.619435,270.832791 129.682494,263.277105 C128.758494,255.708512 128.634259,248.00827 129.480612,240.349329 C130.383906,232.716202 132.252612,225.083075 135.635435,218.074641 C137.328141,214.58204 139.406494,211.27788 141.808376,208.252508 C144.306024,205.296833 147.098729,202.619947 150.238259,200.474824" id="Fill-32" fill="#759AA4"></path>
                    <path d="M62.2317882,263.899991 C63.9943765,259.101214 66.7560235,254.70255 69.7635529,250.538792 C72.8513176,246.426661 76.2444941,242.497808 80.0569647,239.007788 C87.5524941,231.867704 96.3162588,226.142213 105.530376,221.472505 C114.752259,216.973168 124.033671,212.992687 133.320259,208.965742 C137.922141,206.905804 142.518847,204.925889 146.639318,202.241259 C150.8012,199.608256 154.401435,195.989168 158.1932,192.586915 C155.263318,196.737767 152.172965,200.847316 148.163788,204.267639 C144.126141,207.633752 139.5812,210.194476 135.085435,212.587411 C130.592259,215.02423 126.003318,217.190004 121.468729,219.469358 C116.941906,221.697085 112.236494,223.793162 107.841671,226.088005 C105.600259,227.169601 103.376965,228.284755 101.239082,229.547048 C100.159788,230.166578 99.0623765,230.75255 97.9986118,231.392731 L94.8461412,233.377809 C90.5962588,235.964347 86.6155529,238.945835 82.7099059,242.025416 C78.8146118,245.130811 75.1574353,248.533063 71.7047294,252.152152 C68.2390824,255.768658 65.0037882,259.632977 62.2317882,263.899991" id="Fill-34" fill="#759AA4"></path>
                    <g id="Group-38" transform="translate(26.765887, 0.877668)">
                        <mask id="mask-7" fill="white">
                            <use xlink:href="#path-6"></use>
                        </mask>
                        <g id="Clip-37"></g>
                        <path d="M0.217759981,65.3834491 C1.43940704,58.5944319 3.62387763,52.0454826 6.22764233,45.6746482 C7.47258351,42.4582545 9.04364233,39.3889992 10.5344659,36.2732791 C12.1779953,33.232419 13.8603482,30.2096284 15.7290541,27.2823488 C19.5363482,21.4974866 23.7318776,15.8571814 28.9989365,11.1823107 C34.1598776,6.49711438 40.2292894,2.48049433 46.9819953,0.818088596 C41.0989365,4.47073473 36.2899953,9.04751324 31.8848188,14.0011726 C27.4925835,18.9574132 23.6801129,24.4479986 20.0876423,30.06249 C16.40976,35.6408422 13.1252894,41.4979829 9.85893645,47.3990069 L0.217759981,65.3834491 Z" id="Fill-36" fill="#759AA4" mask="url(#mask-7)"></path>
                    </g>
                    <path d="M42.3688941,53.2507267 C45.0399529,47.5768637 48.6738353,42.4244385 52.6985412,37.6230803 C56.7310118,32.8113966 61.3173647,28.454035 66.2971294,24.5432514 C71.3804235,20.7666992 76.8856,17.4806084 82.8126588,15.1263941 C88.7863059,12.8883416 95.1766588,11.6776766 101.4376,12.0209995 C95.4044235,13.8279623 89.8293647,16.0272941 84.4898353,18.7893657 C79.2512471,21.7372964 74.2248941,24.9846666 69.4418353,28.6373127 C64.6484235,32.2770519 60.1138353,36.2833465 55.6180706,40.3877333 C51.1585412,44.5411663 46.7818353,48.8210866 42.3688941,53.2507267" id="Fill-39" fill="#759AA4"></path>
                    <path d="M133.074635,24.2833069 C129.973929,24.6911642 126.937929,24.7273034 123.917459,25.0422312 C120.902165,25.4113679 117.899812,25.5378553 114.938871,26.0489676 C113.453224,26.2735473 111.975341,26.4774759 110.494871,26.6530095 L106.102635,27.4893751 C104.635106,27.7346057 103.177929,28.0263011 101.736282,28.3876937 C100.294635,28.7465049 98.8296941,29.0046424 97.4113412,29.4408948 L93.1148706,30.6050951 C91.6887529,31.0181152 90.3040471,31.5524599 88.8805176,31.9809682 C86.0489882,32.8792868 83.2795765,33.9712086 80.5101647,35.0837814 C74.9920471,37.3708799 69.5748706,39.9599994 64.2767529,43.127347 C68.1953412,38.3027564 73.3148706,34.5391112 78.7320471,31.4646931 C84.1699294,28.3825309 90.0426353,26.051549 96.1016941,24.4485149 C102.191812,23.0339212 108.403576,21.9368367 114.654165,22.0426731 C117.765224,21.8697209 120.881459,22.2956479 123.961459,22.5202275 C127.036282,22.9125966 130.085224,23.5605218 133.074635,24.2833069" id="Fill-41" fill="#759AA4"></path>
                    <path d="M105.565835,37.2735621 C107.284424,35.3065541 109.411953,33.7783799 111.578306,32.3947627 C113.749835,31.00082 116.040424,29.8288756 118.372424,28.7576048 C123.062306,26.6795976 127.938541,25.024936 133.0736,24.2840813 C130.863247,25.6496289 128.590776,26.7957595 126.305365,27.8980068 C124.035482,29.0363933 121.7216,30.0431297 119.438776,31.1066564 C114.829129,33.174338 110.247953,35.1310205 105.565835,37.2735621" id="Fill-43" fill="#759AA4"></path>
                    <path d="M195.135341,109.42352 C195.135341,109.42352 220.000518,141.458388 215.665224,164.197723 C215.665224,164.197723 206.282871,146.275234 202.617929,155.529465 C200.379106,161.182677 203.3944,170.607278 198.072988,176.869695 C198.072988,176.869695 196.540753,165.48583 190.559341,171.879896 C184.577929,178.276545 186.793459,181.40259 177.688047,191.16277 C177.688047,191.16277 185.846165,160.617356 173.277694,180.189344 C168.422165,187.752773 205.400282,146.915415 195.135341,109.42352" id="Fill-45" fill="#93ABB5"></path>
                    <path d="M195.135341,109.42352 C199.025459,112.761238 202.286635,116.690091 205.224282,120.830617 C208.161929,124.978888 210.755341,129.395621 212.800047,134.104049 C214.852518,138.794408 216.498635,143.73258 217.158635,148.908237 C217.844518,154.021942 217.681459,159.455737 215.665224,164.197723 C215.535812,159.073693 214.536753,154.378171 213.2064,149.742021 C211.896753,145.108453 209.984047,140.642673 208.060988,136.182057 C204.201929,127.224684 199.455106,118.628704 195.135341,109.42352" id="Fill-47" fill="#759AA4"></path>
                    <path d="M196.846682,124.095025 C199.5048,127.928367 201.332094,132.221194 202.740094,136.630183 C204.127388,141.049498 205.056565,145.641765 205.387859,150.311473 C205.682918,154.988925 205.328329,159.738656 204.280094,164.341248 C203.115388,168.923189 201.086212,173.327015 198.073506,176.868662 C199.165741,172.325442 199.918918,168.050684 200.291624,163.703648 C200.540094,159.341124 200.467624,155.01732 200.224329,150.654796 C199.639388,141.911677 198.156329,133.238256 196.846682,124.095025" id="Fill-49" fill="#759AA4"></path>
                    <path d="M177.687529,191.16277 C178.580471,189.012485 179.719294,187.099686 180.671765,185.083631 C181.600941,183.05467 182.675059,181.149615 183.521412,179.128398 C185.436706,175.204708 186.901647,171.133879 188.387294,167.104352 C191.185176,158.944624 193.108235,150.606782 194.133176,141.564224 C195.781882,145.888028 196.157176,150.591294 195.932,155.188723 C195.675765,159.804222 194.826824,164.411978 193.281647,168.784827 C191.695059,173.131863 189.709882,177.357575 187.020706,181.110895 C185.812,183.070159 184.212471,184.766122 182.752706,186.516295 C181.179059,188.189026 179.465647,189.730107 177.687529,191.16277" id="Fill-51" fill="#759AA4"></path>
                    <path d="M180.921788,169.110081 C181.568847,170.953183 181.713788,172.891796 181.729318,174.783944 C181.7552,176.69158 181.553318,178.573403 181.268612,180.437156 C180.621553,184.151755 179.588847,187.794076 177.686494,191.16277 C177.611435,189.224157 177.761553,187.357823 177.966024,185.51214 C178.139435,183.658712 178.444847,181.841424 178.714024,180.021554 C179.332612,176.376652 180.057318,172.835005 180.921788,169.110081" id="Fill-53" fill="#759AA4"></path>
                    <path d="M117.506141,106.128652 C117.506141,106.128652 115.383788,106.616532 113.830847,108.242799 C113.106141,108.991397 112.510847,109.97232 112.277906,111.263008 L111.294376,100.911693 L111.268494,100.785205 L111.268494,100.656136 L111.630847,100.991715 L111.812024,101.144016 L112.8732,102.075893 L117.506141,106.128652 Z" id="Fill-55" fill="#93ABB5"></path>
                    <path d="M114.426141,122.158993 C114.296729,123.759446 114.089671,125.254062 113.727318,126.573145 C113.727318,126.573145 113.287318,124.637113 112.8732,122.055738 C112.303788,118.648323 111.786141,114.105102 112.277906,111.291403 L112.277906,111.263008 C112.510847,109.97232 113.106141,108.991397 113.830847,108.242799 C114.322612,112.298139 114.788494,117.613191 114.426141,122.158993" id="Fill-57" fill="#FEFEFE"></path>
                    <path d="M112.872941,122.05548 C113.287059,124.636855 113.364706,127.835179 113.131765,128.377268 L112.407059,124.146394 C112.432941,124.066371 112.407059,124.017325 112.381176,123.937303 L112.044706,122.027085 L111.475294,118.568042 L110.051765,116.712033 L110.025882,116.686219 L100.397647,104.060712 C100.371765,104.03748 100.371765,104.03748 100.371765,104.011666 L98.0682353,100.991457 L96.1270588,100.139603 L93.2541176,98.8747292 L98.3270588,95.3640587 L105.625882,98.4875229 L107.825882,98.4358954 L111.268235,100.784947 L111.552941,100.965643 L111.630588,100.991457 L111.811765,101.143758 L112.743529,101.76587 C112.769412,101.789102 112.821176,101.817497 112.847059,101.869125 C112.847059,101.918171 112.847059,101.995612 112.872941,102.075635 C113.002353,102.824234 113.442353,105.173285 113.830588,108.24254 C113.105882,108.991139 112.510588,109.972062 112.277647,111.26275 L112.277647,111.291145 C111.785882,114.104844 112.303529,118.648064 112.872941,122.05548" id="Fill-59" fill="#93ABB5"></path>
                    <path d="M72.3864706,94.1268055 C77.3015294,93.5227637 82.3330588,94.0829221 87.1756471,95.3581216 C92.0311765,96.6359024 96.69,98.8662107 100.774235,101.948373 C101.742235,102.78732 102.798235,103.528175 103.680824,104.460051 L106.294941,107.284076 C107.086941,108.285649 107.744353,109.400804 108.463882,110.451423 C108.797765,110.993512 109.211882,111.489136 109.475882,112.072527 L110.247176,113.8227 C112.542941,118.386571 113.133059,123.523508 113.120118,128.384238 C111.525765,123.709367 110.161765,119.150658 107.568353,115.23213 C105.169059,111.272301 102.135647,107.733235 98.4008235,105.012465 C94.7669412,102.178115 90.6102353,99.989109 86.2283529,98.2131227 C81.8205882,96.488764 77.2057647,95.1232164 72.3864706,94.1268055" id="Fill-61" fill="#759AA4"></path>
                    <path d="M72.3864706,94.1268055 C74.9591765,91.5015468 77.9589412,89.4003072 81.1088235,87.562368 C84.2561176,85.7115219 87.6208235,84.2169055 91.1408235,83.09917 C94.6763529,82.0666199 98.3387059,81.2199287 102.114941,81.318021 C105.844588,81.3541603 109.685529,82.1259915 112.801765,84.0955809 C109.142,83.6619098 105.728118,83.8451875 102.329765,84.330486 C101.480824,84.5008568 100.639647,84.6428325 99.7958824,84.7693199 L97.2852941,85.3707803 C95.6184706,85.7915445 93.9412941,86.2148901 92.3055294,86.7879554 C88.9796471,87.7662966 85.7184706,89.0337519 82.4158824,90.2753935 L72.3864706,94.1268055 Z" id="Fill-63" fill="#759AA4"></path>
                    <path d="M72.3864706,94.1268055 C74.2810588,93.3136723 76.2325882,92.4979577 78.2565882,91.9558689 C80.2961176,91.5196164 82.3589412,90.9517138 84.4787059,90.8845981 C88.7052941,90.3967181 93.0121176,90.9362256 97.1507059,91.9403806 C101.289294,93.0168141 105.233765,94.8057072 108.714941,97.2192932 C112.201294,99.5993213 115.327882,102.56274 117.507176,106.12762 C114.152824,103.675313 110.726,101.592143 107.172353,99.8187382 C103.616118,98.0763098 99.9615294,96.6023445 96.1594118,95.6833749 C92.3857647,94.6972895 88.4982353,94.0287133 84.5382353,93.8944817 C82.5530588,93.6982972 80.5652941,93.8428542 78.5361176,93.827366 C76.5095294,93.8351101 74.5010588,94.137131 72.3864706,94.1268055" id="Fill-65" fill="#759AA4"></path>
                    <path d="M126.409412,170.678266 C125.286118,170.546616 124.240471,170.363338 123.324235,170.074224 C123.324235,170.074224 124.696,169.816087 126.523294,169.594089 C128.932941,169.286905 132.142353,169.041674 134.109412,169.459857 L134.124941,169.459857 C135.028235,169.656042 135.701176,170.097457 136.211059,170.624057 C133.345882,170.864125 129.595529,171.052566 126.409412,170.678266" id="Fill-67" fill="#FEFEFE"></path>
                    <path d="M126.523294,169.594089 C124.696,169.816087 122.444235,169.787692 122.068941,169.612158 L125.066118,169.214626 C125.117882,169.232696 125.156706,169.217208 125.211059,169.201719 L126.562118,169.01586 L129.010588,168.708677 L130.353882,167.761312 L130.372,167.743242 L139.500706,161.33885 C139.518824,161.320781 139.518824,161.320781 139.539529,161.320781 L141.724,159.790025 L142.373647,158.455454 L148.018588,146.883148 L145.673647,160.11786 L143.287294,165.141216 L150.239294,149.188316 L150.824235,165.265122 L145.668471,179.408478 C145.668471,179.408478 148.171294,167.041108 139.184941,171.798583 C138.677647,171.271983 135.028235,169.656042 134.127529,169.459857 L134.109412,169.459857 C132.142353,169.041674 128.932941,169.286905 126.523294,169.594089" id="Fill-69" fill="#93ABB5"></path>
                    <path d="M147.221412,142.005639 C147.757176,145.482752 147.348235,149.050213 146.390588,152.475698 C145.438118,155.908927 143.737647,159.184692 141.421176,162.026787 C140.251294,163.449124 138.861412,164.65979 137.422353,165.811083 C136.669176,166.337684 135.846118,166.768773 135.067059,167.243746 C134.303529,167.762603 133.441647,168.082693 132.577176,168.379551 C129.212471,169.817378 125.503529,169.977423 122.063765,169.600542 C125.374118,168.369226 128.534353,167.416698 131.262353,165.6562 C134.011059,164.024771 136.488,162.037112 138.442118,159.548666 C140.489412,157.145406 142.130353,154.370427 143.561647,151.422497 C144.956706,148.451334 146.155059,145.325288 147.221412,142.005639" id="Fill-71" fill="#759AA4"></path>
                    <path d="M147.221412,142.005639 C149.206588,143.753231 150.725882,145.864796 152.02,148.095104 C153.332235,150.327994 154.359765,152.728673 155.045647,155.25842 C155.708235,157.785587 156.161176,160.431497 155.902353,163.12129 C155.700471,165.774944 154.913647,168.498295 153.218353,170.537581 C153.391765,167.899416 153.210588,165.563271 152.876706,163.221963 C152.529882,160.885819 151.908706,158.590976 151.303059,156.280645 C150.076235,151.636751 148.419765,147.080623 147.221412,142.005639" id="Fill-73" fill="#759AA4"></path>
                    <path d="M147.221412,142.005639 C148.564706,144.63348 149.460235,147.547852 149.633647,150.557736 C149.959765,153.565038 149.514588,156.636875 148.665647,159.553829 C147.803765,162.478527 146.362118,165.225111 144.475294,167.579325 C142.619529,169.941284 140.326353,172.001221 137.600941,173.250607 C140.869882,168.361482 143.421882,163.5911 144.951529,158.423187 C145.709882,155.854718 146.325882,153.232041 146.615765,150.500946 C147.006588,147.769851 146.996235,144.989709 147.221412,142.005639" id="Fill-75" fill="#759AA4"></path>
                    <path d="M5.16301176,106.862279 C6.18536471,99.6266839 8.60536471,92.6105056 11.7888941,85.9892779 C14.9983059,79.3732128 19.0256,73.1082148 23.8811294,67.5014675 C33.5378353,56.205369 46.3703059,47.7642715 60.2303059,42.3769412 C67.1538353,39.6200323 74.3801882,37.678838 81.6841882,36.3416856 C88.9881882,34.9838821 96.3750118,34.1139587 103.787718,33.8558211 C118.574306,33.3240578 133.728424,34.6173268 147.924894,39.6948922 C155.008894,42.183338 161.815953,45.5984976 167.978541,49.9584406 C174.177365,54.2693374 179.591953,59.6747374 184.134306,65.6764352 C188.648188,71.7091094 192.2096,78.4413363 194.590776,85.5633509 C196.992659,92.6621332 198.162541,100.140378 198.719012,107.474065 C199.736188,122.205974 198.095247,137.286369 192.654776,151.055425 C187.315247,164.819319 178.240894,177.057619 166.679247,186.002085 C177.614541,176.32709 186.065129,163.99586 190.656659,150.327477 C195.299953,136.677164 196.552659,122.045929 195.121365,107.781249 C194.386306,100.620513 193.175012,93.5888469 190.677365,86.9314799 C188.200424,80.3102521 184.783953,74.0349286 180.448659,68.4669019 C171.783247,57.292128 159.634071,49.1091681 146.2296,44.4988317 C132.794071,39.8601002 118.323247,38.3474142 103.963718,38.8275501 C89.5990118,39.3180114 75.1903059,41.3960185 61.7133647,46.3083758 C48.2623059,51.1432919 35.7041882,58.7815816 25.8663059,69.2851979 C15.9404235,79.6597455 8.58983529,92.6982724 5.16301176,106.862279" id="Fill-77" fill="#759AA4"></path>
                    <path d="M66.0245882,300.566104 C66.0245882,300.566104 62.3052941,307.280262 60.4987059,307.143449 C55.3325882,306.748498 56.6888235,298.126705 61.2518824,293.663507 C66.0763529,288.949915 69.4514118,288.172921 71.3485882,287.974156 C73.2457647,287.772808 74.5916471,292.708398 75.4095294,286.089751 C76.23,279.471105 81.6937647,268.355703 88.3507059,269.349532 C95.0076471,270.34078 97.5596471,265.193518 103.235647,268.492516 C108.911647,271.794095 111.450706,270.402733 112.206471,275.451904 C112.964824,280.501074 113.689529,273.588151 116.906706,273.926311 C120.123882,274.26189 125.854235,268.355703 127.722941,270.810591 C129.594235,273.260316 137.418471,273.384222 138.189765,279.305897 C138.197529,279.362687 138.205294,279.42464 138.210471,279.481431 C138.666,283.650352 134.442,290.114116 130.378471,283.322517 C129.120588,281.221278 125.903412,280.415888 122.287647,282.129922 C110.824353,287.566298 120.657059,308.126953 112.695647,307.14603 C105.332118,306.237386 113.573059,287.561135 105.339882,281.324533 C96.9332941,274.958861 81.5928235,280.054496 80.9328235,287.124883 C80.2728235,294.19527 82.9723529,298.075077 76.0824706,297.008969 C69.1925882,295.942861 66.0245882,300.566104 66.0245882,300.566104" id="Fill-79" fill="#FFFFFF" opacity="0.4"></path>
                    <path d="M141.074353,149.999384 C141.074353,149.999384 137.505176,163.445769 128.912235,164.196949 C120.316706,164.948129 113.830588,172.054656 117.505882,171.943656 C121.181176,171.830076 126.140235,170.588434 128.081412,173.252414 C130.022588,175.918974 127.866588,191.079392 125.925412,195.924633 C123.984235,200.767294 133.912706,202.032168 131.963765,195.493544 C131.264941,193.141911 129.807765,182.122019 131.748941,176.868921 C133.690118,171.615822 135.708941,172.47542 136.211059,175.487885 C136.710588,178.50035 137.204941,173.533784 141.074353,174.155895 C144.941176,174.780588 139.200471,185.813386 143.561647,183.232011 C147.925412,180.650635 148.427529,159.997051 150.824235,165.265638 C153.218353,170.536807 147.374118,176.778572 150.239294,175.273631 C153.101882,173.766107 159.272235,167.338483 159.357647,161.076066 C159.598353,143.220693 147.741647,132.74289 144.879059,135.636612 C144.879059,135.636612 145.135294,140.084322 141.074353,149.999384" id="Fill-82" fill="#FFFFFF" opacity="0.4"></path>
                    <path d="M86.2286118,98.2131227 C86.2286118,98.2131227 108.505553,115.079829 109.856612,124.829684 C112.079906,140.860025 104.861318,141.608624 108.096612,145.480687 C111.331906,149.35275 117.013082,144.881808 116.456612,137.783026 C115.900141,130.684243 114.758729,133.96259 115.1392,126.572112 C115.519671,119.181635 112.460376,114.150534 115.1392,111.264557 C118.322729,107.83649 119.836847,111.339416 120.750494,110.577911 C126.087435,106.12762 109.323435,100.939055 109.323435,100.939055 C109.323435,100.939055 116.627435,114.191836 86.2286118,98.2131227" id="Fill-84" fill="#FFFFFF" opacity="0.4"></path>
                    <path d="M200.774588,177.817318 C200.885882,177.554018 201.002353,177.301043 201.168,177.117765 C203.575059,174.412484 208.104471,162.047696 208.319294,159.84062 C208.534118,157.633544 213.928,162.401344 213.928,166.363755 C213.928,170.326167 215.946824,172.275105 217.525647,166.030758 C219.104471,159.786411 227.195294,127.049409 197.241647,110.260143 C197.241647,110.260143 192.929647,157.96396 169.961647,183.13237 C169.961647,183.13237 176.429647,177.654691 176.033647,184.384337 C175.800706,188.318353 176.020706,190.009154 174.457412,195.280322 C173.864706,197.273144 180.224,194.023192 181.732941,192.587948 C188.638353,186.002859 192.194588,179.490049 193.651765,173.250865 C193.651765,173.250865 192.197176,187.427778 200.774588,177.817318" id="Fill-86" fill="#FFFFFF" opacity="0.4"></path>
                </g>
            </g>
        </g>
    </g>
</svg>